<svg width="152" height="44" viewBox="0 0 152 44" fill="none" xmlns="http://www.w3.org/2000/svg">
<rect width="152" height="44" rx="22" fill="#F6EEEE"/>
<path d="M21.1139 12.2027C22.5602 12.6888 18.3215 15.0761 20.9707 16.6772C22.4599 17.5778 25.7106 13.5036 27.3431 12.5887C28.7321 11.8168 31.1665 11.6595 32.3981 14.347C33.9589 17.7493 32.5985 26.5981 26.9708 30.1576C21.2857 33.7314 14.1257 31.9159 11.6483 26.355C8.76999 19.8793 16.1162 10.5016 21.1139 12.2027ZM22.8466 21.4232C23.892 23.7676 29.577 20.7084 28.2739 17.4205C27.429 15.2905 21.8585 19.2074 22.8466 21.4232Z" fill="#8C8888"/>
<path d="M44.6406 16.5703L41.5469 26H39.0547L43.2812 14.625H44.8672L44.6406 16.5703ZM47.2109 26L44.1094 16.5703L43.8594 14.625H45.4609L49.7109 26H47.2109ZM47.0703 21.7656V23.6016H41.0625V21.7656H47.0703ZM52.875 19.3906V26H50.625V17.5469H52.7422L52.875 19.3906ZM55.4219 17.4922L55.3828 19.5781C55.2734 19.5625 55.1406 19.5495 54.9844 19.5391C54.8333 19.5234 54.6953 19.5156 54.5703 19.5156C54.2526 19.5156 53.9766 19.5573 53.7422 19.6406C53.513 19.7188 53.3203 19.8359 53.1641 19.9922C53.013 20.1484 52.8984 20.3385 52.8203 20.5625C52.7474 20.7865 52.7057 21.0417 52.6953 21.3281L52.2422 21.1875C52.2422 20.6406 52.2969 20.138 52.4062 19.6797C52.5156 19.2161 52.6745 18.8125 52.8828 18.4688C53.0964 18.125 53.3568 17.8594 53.6641 17.6719C53.9714 17.4844 54.3229 17.3906 54.7188 17.3906C54.8438 17.3906 54.9714 17.401 55.1016 17.4219C55.2318 17.4375 55.3385 17.4609 55.4219 17.4922ZM61.0156 17.5469V19.1406H56.0938V17.5469H61.0156ZM57.3125 15.4609H59.5625V23.4531C59.5625 23.6979 59.5938 23.8854 59.6562 24.0156C59.724 24.1458 59.8229 24.237 59.9531 24.2891C60.0833 24.3359 60.2474 24.3594 60.4453 24.3594C60.5859 24.3594 60.7109 24.3542 60.8203 24.3438C60.9349 24.3281 61.0312 24.3125 61.1094 24.2969L61.1172 25.9531C60.9245 26.0156 60.7161 26.0651 60.4922 26.1016C60.2682 26.138 60.0208 26.1562 59.75 26.1562C59.2552 26.1562 58.8229 26.0755 58.4531 25.9141C58.0885 25.7474 57.8073 25.4818 57.6094 25.1172C57.4115 24.7526 57.3125 24.2734 57.3125 23.6797V15.4609ZM68.0703 19.9141L70.2578 18.5C70.5807 18.2865 70.7969 18.0807 70.9062 17.8828C71.0156 17.6849 71.0703 17.4635 71.0703 17.2188C71.0703 16.974 70.9792 16.7474 70.7969 16.5391C70.6146 16.3255 70.3594 16.2188 70.0312 16.2188C69.7969 16.2188 69.599 16.2734 69.4375 16.3828C69.276 16.487 69.1536 16.6276 69.0703 16.8047C68.9922 16.9818 68.9531 17.1797 68.9531 17.3984C68.9531 17.6328 69.0156 17.8724 69.1406 18.1172C69.2656 18.3568 69.4349 18.612 69.6484 18.8828C69.862 19.1484 70.099 19.4375 70.3594 19.75L75.7266 26H73.1719L68.7969 20.9375C68.4271 20.4792 68.1042 20.0599 67.8281 19.6797C67.5521 19.2943 67.3359 18.9193 67.1797 18.5547C67.0234 18.1901 66.9453 17.8151 66.9453 17.4297C66.9453 16.8359 67.0729 16.3177 67.3281 15.875C67.5833 15.4271 67.9427 15.0807 68.4062 14.8359C68.8698 14.5859 69.4141 14.4609 70.0391 14.4609C70.6276 14.4609 71.138 14.5833 71.5703 14.8281C72.0026 15.0677 72.3359 15.3854 72.5703 15.7812C72.8099 16.1771 72.9297 16.612 72.9297 17.0859C72.9297 17.4401 72.8646 17.7682 72.7344 18.0703C72.6042 18.3672 72.4245 18.6432 72.1953 18.8984C71.9661 19.1484 71.7031 19.3802 71.4062 19.5938L68.9141 21.3672C68.7214 21.5443 68.5755 21.7188 68.4766 21.8906C68.3776 22.0625 68.3099 22.2266 68.2734 22.3828C68.237 22.5339 68.2188 22.6797 68.2188 22.8203C68.2188 23.1224 68.2839 23.3932 68.4141 23.6328C68.5443 23.8724 68.7266 24.0599 68.9609 24.1953C69.1953 24.3307 69.4688 24.3984 69.7812 24.3984C70.2083 24.3984 70.6224 24.3047 71.0234 24.1172C71.4245 23.9297 71.7839 23.6615 72.1016 23.3125C72.4193 22.9583 72.6719 22.5391 72.8594 22.0547C73.0469 21.5703 73.1406 21.0365 73.1406 20.4531H75.0469C75.0469 21.0365 74.9896 21.5911 74.875 22.1172C74.7604 22.638 74.5755 23.1224 74.3203 23.5703C74.0651 24.013 73.7266 24.4062 73.3047 24.75C73.2734 24.776 73.2292 24.8151 73.1719 24.8672C73.1198 24.9141 73.0755 24.9505 73.0391 24.9766C72.5391 25.3776 72.0182 25.6771 71.4766 25.875C70.9349 26.0677 70.3307 26.1641 69.6641 26.1641C68.9036 26.1641 68.2448 26.026 67.6875 25.75C67.1354 25.474 66.7083 25.0938 66.4062 24.6094C66.1094 24.125 65.9609 23.5703 65.9609 22.9453C65.9609 22.487 66.0495 22.0885 66.2266 21.75C66.4089 21.4062 66.6589 21.0885 66.9766 20.7969C67.2943 20.5052 67.6589 20.2109 68.0703 19.9141ZM87.5312 22.2266H89.8672C89.8203 22.9922 89.6094 23.6719 89.2344 24.2656C88.8646 24.8594 88.3464 25.3229 87.6797 25.6562C87.0182 25.9896 86.2214 26.1562 85.2891 26.1562C84.5599 26.1562 83.9062 26.0312 83.3281 25.7812C82.75 25.526 82.2552 25.1615 81.8438 24.6875C81.4375 24.2135 81.1276 23.6406 80.9141 22.9688C80.7005 22.2969 80.5938 21.5443 80.5938 20.7109V19.9219C80.5938 19.0885 80.7031 18.3359 80.9219 17.6641C81.1458 16.987 81.4635 16.4115 81.875 15.9375C82.2917 15.4635 82.7891 15.099 83.3672 14.8438C83.9453 14.5885 84.5911 14.4609 85.3047 14.4609C86.2526 14.4609 87.0521 14.6328 87.7031 14.9766C88.3594 15.3203 88.8672 15.7943 89.2266 16.3984C89.5911 17.0026 89.8099 17.6901 89.8828 18.4609H87.5391C87.513 18.0026 87.4219 17.6146 87.2656 17.2969C87.1094 16.974 86.8724 16.7318 86.5547 16.5703C86.2422 16.4036 85.8255 16.3203 85.3047 16.3203C84.9141 16.3203 84.5729 16.3932 84.2812 16.5391C83.9896 16.6849 83.7448 16.9062 83.5469 17.2031C83.349 17.5 83.2005 17.875 83.1016 18.3281C83.0078 18.776 82.9609 19.3021 82.9609 19.9062V20.7109C82.9609 21.2995 83.0052 21.8177 83.0938 22.2656C83.1823 22.7083 83.3177 23.0833 83.5 23.3906C83.6875 23.6927 83.9271 23.9219 84.2188 24.0781C84.5156 24.2292 84.8724 24.3047 85.2891 24.3047C85.7786 24.3047 86.1823 24.2266 86.5 24.0703C86.8177 23.9141 87.0599 23.6823 87.2266 23.375C87.3984 23.0677 87.5 22.6849 87.5312 22.2266ZM96.2656 23.9766V17.5469H98.5156V26H96.3984L96.2656 23.9766ZM96.5156 22.2422L97.1797 22.2266C97.1797 22.7891 97.1146 23.3125 96.9844 23.7969C96.8542 24.276 96.6589 24.6927 96.3984 25.0469C96.138 25.3958 95.8099 25.6693 95.4141 25.8672C95.0182 26.0599 94.5521 26.1562 94.0156 26.1562C93.6042 26.1562 93.224 26.099 92.875 25.9844C92.5312 25.8646 92.2344 25.6797 91.9844 25.4297C91.7396 25.1745 91.5469 24.849 91.4062 24.4531C91.2708 24.0521 91.2031 23.5703 91.2031 23.0078V17.5469H93.4531V23.0234C93.4531 23.2734 93.4818 23.4844 93.5391 23.6562C93.6016 23.8281 93.6875 23.9688 93.7969 24.0781C93.9062 24.1875 94.0339 24.2656 94.1797 24.3125C94.3307 24.3594 94.4974 24.3828 94.6797 24.3828C95.1432 24.3828 95.5078 24.2891 95.7734 24.1016C96.0443 23.9141 96.2344 23.6589 96.3438 23.3359C96.4583 23.0078 96.5156 22.6432 96.5156 22.2422ZM102.609 14V26H100.352V14H102.609ZM108.609 17.5469V19.1406H103.688V17.5469H108.609ZM104.906 15.4609H107.156V23.4531C107.156 23.6979 107.188 23.8854 107.25 24.0156C107.318 24.1458 107.417 24.237 107.547 24.2891C107.677 24.3359 107.841 24.3594 108.039 24.3594C108.18 24.3594 108.305 24.3542 108.414 24.3438C108.529 24.3281 108.625 24.3125 108.703 24.2969L108.711 25.9531C108.518 26.0156 108.31 26.0651 108.086 26.1016C107.862 26.138 107.615 26.1562 107.344 26.1562C106.849 26.1562 106.417 26.0755 106.047 25.9141C105.682 25.7474 105.401 25.4818 105.203 25.1172C105.005 24.7526 104.906 24.2734 104.906 23.6797V15.4609ZM114.891 23.9766V17.5469H117.141V26H115.023L114.891 23.9766ZM115.141 22.2422L115.805 22.2266C115.805 22.7891 115.74 23.3125 115.609 23.7969C115.479 24.276 115.284 24.6927 115.023 25.0469C114.763 25.3958 114.435 25.6693 114.039 25.8672C113.643 26.0599 113.177 26.1562 112.641 26.1562C112.229 26.1562 111.849 26.099 111.5 25.9844C111.156 25.8646 110.859 25.6797 110.609 25.4297C110.365 25.1745 110.172 24.849 110.031 24.4531C109.896 24.0521 109.828 23.5703 109.828 23.0078V17.5469H112.078V23.0234C112.078 23.2734 112.107 23.4844 112.164 23.6562C112.227 23.8281 112.312 23.9688 112.422 24.0781C112.531 24.1875 112.659 24.2656 112.805 24.3125C112.956 24.3594 113.122 24.3828 113.305 24.3828C113.768 24.3828 114.133 24.2891 114.398 24.1016C114.669 23.9141 114.859 23.6589 114.969 23.3359C115.083 23.0078 115.141 22.6432 115.141 22.2422ZM121.109 19.3906V26H118.859V17.5469H120.977L121.109 19.3906ZM123.656 17.4922L123.617 19.5781C123.508 19.5625 123.375 19.5495 123.219 19.5391C123.068 19.5234 122.93 19.5156 122.805 19.5156C122.487 19.5156 122.211 19.5573 121.977 19.6406C121.747 19.7188 121.555 19.8359 121.398 19.9922C121.247 20.1484 121.133 20.3385 121.055 20.5625C120.982 20.7865 120.94 21.0417 120.93 21.3281L120.477 21.1875C120.477 20.6406 120.531 20.138 120.641 19.6797C120.75 19.2161 120.909 18.8125 121.117 18.4688C121.331 18.125 121.591 17.8594 121.898 17.6719C122.206 17.4844 122.557 17.3906 122.953 17.3906C123.078 17.3906 123.206 17.401 123.336 17.4219C123.466 17.4375 123.573 17.4609 123.656 17.4922ZM128.453 26.1562C127.797 26.1562 127.208 26.0521 126.688 25.8438C126.167 25.6302 125.724 25.3359 125.359 24.9609C125 24.5859 124.724 24.151 124.531 23.6562C124.339 23.1562 124.242 22.625 124.242 22.0625V21.75C124.242 21.1094 124.333 20.5234 124.516 19.9922C124.698 19.4609 124.958 19 125.297 18.6094C125.641 18.2188 126.057 17.9193 126.547 17.7109C127.036 17.4974 127.589 17.3906 128.203 17.3906C128.802 17.3906 129.333 17.4896 129.797 17.6875C130.26 17.8854 130.648 18.1667 130.961 18.5312C131.279 18.8958 131.518 19.3333 131.68 19.8438C131.841 20.349 131.922 20.9115 131.922 21.5312V22.4688H125.203V20.9688H129.711V20.7969C129.711 20.4844 129.654 20.2057 129.539 19.9609C129.43 19.7109 129.263 19.513 129.039 19.3672C128.815 19.2214 128.529 19.1484 128.18 19.1484C127.883 19.1484 127.628 19.2135 127.414 19.3438C127.201 19.474 127.026 19.6562 126.891 19.8906C126.76 20.125 126.661 20.401 126.594 20.7188C126.531 21.0312 126.5 21.375 126.5 21.75V22.0625C126.5 22.401 126.547 22.7135 126.641 23C126.74 23.2865 126.878 23.5339 127.055 23.7422C127.237 23.9505 127.456 24.112 127.711 24.2266C127.971 24.3411 128.266 24.3984 128.594 24.3984C129 24.3984 129.378 24.3203 129.727 24.1641C130.081 24.0026 130.385 23.7604 130.641 23.4375L131.734 24.625C131.557 24.8802 131.315 25.125 131.008 25.3594C130.706 25.5938 130.341 25.7865 129.914 25.9375C129.487 26.0833 129 26.1562 128.453 26.1562Z" fill="#8C8888"/>
</svg>
