<svg width="112" height="17" viewBox="0 0 112 17" fill="none" xmlns="http://www.w3.org/2000/svg">
<path d="M8.57812 13L7.46094 9.82812H3.09375L1.97656 13H0L4.25 1.53125H6.32812L10.5703 13H8.57812ZM6.97656 8.21875L5.89062 5.09375C5.84896 4.95833 5.78906 4.76823 5.71094 4.52344C5.63281 4.27344 5.55469 4.02083 5.47656 3.76562C5.39844 3.50521 5.33333 3.28646 5.28125 3.10938C5.22917 3.32292 5.16406 3.5625 5.08594 3.82812C5.01302 4.08854 4.9401 4.33333 4.86719 4.5625C4.79948 4.79167 4.7474 4.96875 4.71094 5.09375L3.61719 8.21875H6.97656ZM17.7031 10.5312C17.7031 11.099 17.5651 11.5781 17.2891 11.9688C17.013 12.3594 16.6094 12.6562 16.0781 12.8594C15.5521 13.0573 14.9062 13.1562 14.1406 13.1562C13.5365 13.1562 13.0156 13.112 12.5781 13.0234C12.1458 12.9401 11.737 12.8099 11.3516 12.6328V11.0469C11.763 11.2396 12.224 11.4062 12.7344 11.5469C13.25 11.6875 13.737 11.7578 14.1953 11.7578C14.7995 11.7578 15.2344 11.6641 15.5 11.4766C15.7656 11.2839 15.8984 11.0286 15.8984 10.7109C15.8984 10.5234 15.8438 10.3568 15.7344 10.2109C15.6302 10.0599 15.4323 9.90625 15.1406 9.75C14.8542 9.58854 14.4323 9.39583 13.875 9.17188C13.3281 8.95312 12.8672 8.73438 12.4922 8.51562C12.1172 8.29688 11.8333 8.03385 11.6406 7.72656C11.4479 7.41406 11.3516 7.01562 11.3516 6.53125C11.3516 5.76562 11.6536 5.1849 12.2578 4.78906C12.8672 4.38802 13.6719 4.1875 14.6719 4.1875C15.2031 4.1875 15.7031 4.24219 16.1719 4.35156C16.6458 4.45573 17.1094 4.60938 17.5625 4.8125L16.9844 6.19531C16.5938 6.02344 16.2005 5.88281 15.8047 5.77344C15.4141 5.65885 15.0156 5.60156 14.6094 5.60156C14.1354 5.60156 13.7734 5.67448 13.5234 5.82031C13.2786 5.96615 13.1562 6.17448 13.1562 6.44531C13.1562 6.64844 13.2161 6.82031 13.3359 6.96094C13.4557 7.10156 13.6615 7.24219 13.9531 7.38281C14.25 7.52344 14.6615 7.69792 15.1875 7.90625C15.7031 8.10417 16.1484 8.3125 16.5234 8.53125C16.9036 8.74479 17.1953 9.00781 17.3984 9.32031C17.6016 9.63281 17.7031 10.0365 17.7031 10.5312ZM21.5234 0.84375V6.71875C21.5234 6.98438 21.513 7.27604 21.4922 7.59375C21.4714 7.90625 21.4505 8.20052 21.4297 8.47656H21.4688C21.6042 8.29427 21.7656 8.08073 21.9531 7.83594C22.1458 7.59115 22.3281 7.3776 22.5 7.19531L25.1406 4.35156H27.25L23.7891 8.07031L27.4766 13H25.3203L22.5547 9.20312L21.5234 10.0859V13H19.6875V0.84375H21.5234ZM36.4062 4.1875C37.5 4.1875 38.3255 4.42969 38.8828 4.91406C39.4453 5.39844 39.7266 6.15365 39.7266 7.17969V13H38.4219L38.0703 11.7734H38.0078C37.763 12.0859 37.5104 12.3438 37.25 12.5469C36.9896 12.75 36.6875 12.901 36.3438 13C36.0052 13.1042 35.5911 13.1562 35.1016 13.1562C34.5859 13.1562 34.125 13.0625 33.7188 12.875C33.3125 12.6823 32.9922 12.3906 32.7578 12C32.5234 11.6094 32.4062 11.1146 32.4062 10.5156C32.4062 9.625 32.737 8.95573 33.3984 8.50781C34.0651 8.0599 35.0703 7.8125 36.4141 7.76562L37.9141 7.71094V7.25781C37.9141 6.65885 37.7734 6.23177 37.4922 5.97656C37.2161 5.72135 36.8255 5.59375 36.3203 5.59375C35.888 5.59375 35.4688 5.65625 35.0625 5.78125C34.6562 5.90625 34.2604 6.0599 33.875 6.24219L33.2812 4.94531C33.7031 4.72135 34.1823 4.53906 34.7188 4.39844C35.2604 4.25781 35.8229 4.1875 36.4062 4.1875ZM37.9062 8.86719L36.7891 8.90625C35.8724 8.9375 35.2292 9.09375 34.8594 9.375C34.4896 9.65625 34.3047 10.0417 34.3047 10.5312C34.3047 10.9583 34.4323 11.2708 34.6875 11.4688C34.9427 11.6615 35.2786 11.7578 35.6953 11.7578C36.3307 11.7578 36.8568 11.5781 37.2734 11.2188C37.6953 10.8542 37.9062 10.3203 37.9062 9.61719V8.86719ZM46.8047 4.1875C47.7786 4.1875 48.5365 4.4401 49.0781 4.94531C49.625 5.44531 49.8984 6.25 49.8984 7.35938V13H48.0625V7.70312C48.0625 7.03125 47.9245 6.52865 47.6484 6.19531C47.3724 5.85677 46.9453 5.6875 46.3672 5.6875C45.5286 5.6875 44.9453 5.94531 44.6172 6.46094C44.2943 6.97656 44.1328 7.72396 44.1328 8.70312V13H42.2969V4.35156H43.7266L43.9844 5.52344H44.0859C44.2734 5.22135 44.5052 4.97396 44.7812 4.78125C45.0625 4.58333 45.375 4.4349 45.7188 4.33594C46.0677 4.23698 46.4297 4.1875 46.8047 4.1875ZM51.1641 4.35156H53.1641L54.9375 9.28906C55.0156 9.51302 55.0859 9.73438 55.1484 9.95312C55.2161 10.1667 55.2734 10.3776 55.3203 10.5859C55.3724 10.7943 55.4141 11.0026 55.4453 11.2109H55.4922C55.5443 10.9401 55.6172 10.638 55.7109 10.3047C55.8099 9.96615 55.9193 9.6276 56.0391 9.28906L57.7422 4.35156H59.7188L56.0078 14.1875C55.7943 14.75 55.5312 15.2292 55.2188 15.625C54.9115 16.026 54.5469 16.3281 54.125 16.5312C53.7031 16.7396 53.2214 16.8438 52.6797 16.8438C52.4193 16.8438 52.1927 16.8281 52 16.7969C51.8073 16.7708 51.6432 16.7422 51.5078 16.7109V15.2422C51.6172 15.2682 51.7552 15.2917 51.9219 15.3125C52.0885 15.3333 52.2604 15.3438 52.4375 15.3438C52.7656 15.3438 53.0495 15.2786 53.2891 15.1484C53.5286 15.0182 53.7318 14.8333 53.8984 14.5938C54.0651 14.3594 54.2031 14.0911 54.3125 13.7891L54.6172 12.9766L51.1641 4.35156ZM64.25 11.6719C64.4896 11.6719 64.7266 11.651 64.9609 11.6094C65.1953 11.5625 65.4089 11.5078 65.6016 11.4453V12.8359C65.3984 12.9245 65.1354 13 64.8125 13.0625C64.4896 13.125 64.1536 13.1562 63.8047 13.1562C63.3151 13.1562 62.875 13.0755 62.4844 12.9141C62.0938 12.7474 61.7839 12.4635 61.5547 12.0625C61.3255 11.6615 61.2109 11.1068 61.2109 10.3984V5.75H60.0312V4.92969L61.2969 4.28125L61.8984 2.42969H63.0547V4.35156H65.5312V5.75H63.0547V10.375C63.0547 10.8125 63.1641 11.138 63.3828 11.3516C63.6016 11.5651 63.8906 11.6719 64.25 11.6719ZM69.1953 0.84375V3.89844C69.1953 4.21615 69.1849 4.52604 69.1641 4.82812C69.1484 5.13021 69.1302 5.36458 69.1094 5.53125H69.2109C69.3932 5.22917 69.6172 4.98177 69.8828 4.78906C70.1484 4.59115 70.4453 4.44271 70.7734 4.34375C71.1068 4.24479 71.4609 4.19531 71.8359 4.19531C72.4974 4.19531 73.0599 4.30729 73.5234 4.53125C73.987 4.75 74.3411 5.09115 74.5859 5.55469C74.8359 6.01823 74.9609 6.61979 74.9609 7.35938V13H73.125V7.70312C73.125 7.03125 72.987 6.52865 72.7109 6.19531C72.4349 5.85677 72.0078 5.6875 71.4297 5.6875C70.8724 5.6875 70.4297 5.80469 70.1016 6.03906C69.7786 6.26823 69.5469 6.60938 69.4062 7.0625C69.2656 7.51042 69.1953 8.05729 69.1953 8.70312V13H67.3594V0.84375H69.1953ZM79.3672 4.35156V13H77.5312V4.35156H79.3672ZM78.4609 1.03906C78.7422 1.03906 78.9844 1.11458 79.1875 1.26562C79.3958 1.41667 79.5 1.67708 79.5 2.04688C79.5 2.41146 79.3958 2.67188 79.1875 2.82812C78.9844 2.97917 78.7422 3.05469 78.4609 3.05469C78.1693 3.05469 77.9219 2.97917 77.7188 2.82812C77.5208 2.67188 77.4219 2.41146 77.4219 2.04688C77.4219 1.67708 77.5208 1.41667 77.7188 1.26562C77.9219 1.11458 78.1693 1.03906 78.4609 1.03906ZM86.5078 4.1875C87.4818 4.1875 88.2396 4.4401 88.7812 4.94531C89.3281 5.44531 89.6016 6.25 89.6016 7.35938V13H87.7656V7.70312C87.7656 7.03125 87.6276 6.52865 87.3516 6.19531C87.0755 5.85677 86.6484 5.6875 86.0703 5.6875C85.2318 5.6875 84.6484 5.94531 84.3203 6.46094C83.9974 6.97656 83.8359 7.72396 83.8359 8.70312V13H82V4.35156H83.4297L83.6875 5.52344H83.7891C83.9766 5.22135 84.2083 4.97396 84.4844 4.78125C84.7656 4.58333 85.0781 4.4349 85.4219 4.33594C85.7708 4.23698 86.1328 4.1875 86.5078 4.1875ZM94.6406 16.8438C93.4688 16.8438 92.5703 16.6328 91.9453 16.2109C91.3203 15.7891 91.0078 15.1979 91.0078 14.4375C91.0078 13.9062 91.1745 13.4557 91.5078 13.0859C91.8411 12.7214 92.3177 12.4688 92.9375 12.3281C92.7031 12.224 92.5 12.0625 92.3281 11.8438C92.1615 11.6198 92.0781 11.3724 92.0781 11.1016C92.0781 10.7786 92.1693 10.5026 92.3516 10.2734C92.5339 10.0443 92.8073 9.82292 93.1719 9.60938C92.7188 9.41667 92.3542 9.10417 92.0781 8.67188C91.8073 8.23438 91.6719 7.72135 91.6719 7.13281C91.6719 6.50781 91.8047 5.97656 92.0703 5.53906C92.3359 5.09635 92.724 4.76042 93.2344 4.53125C93.7448 4.29688 94.362 4.17969 95.0859 4.17969C95.2422 4.17969 95.4115 4.1901 95.5938 4.21094C95.7812 4.22656 95.9531 4.2474 96.1094 4.27344C96.2708 4.29427 96.3932 4.31771 96.4766 4.34375H99.4688V5.36719L98 5.64062C98.1406 5.83854 98.2526 6.0651 98.3359 6.32031C98.4193 6.57031 98.4609 6.84375 98.4609 7.14062C98.4609 8.03646 98.151 8.74219 97.5312 9.25781C96.9167 9.76823 96.0677 10.0234 94.9844 10.0234C94.724 10.013 94.4714 9.99219 94.2266 9.96094C94.0391 10.0755 93.8958 10.2031 93.7969 10.3438C93.6979 10.4792 93.6484 10.6328 93.6484 10.8047C93.6484 10.9453 93.6979 11.0599 93.7969 11.1484C93.8958 11.2318 94.0417 11.2943 94.2344 11.3359C94.4323 11.3776 94.6719 11.3984 94.9531 11.3984H96.4453C97.3932 11.3984 98.1172 11.599 98.6172 12C99.1172 12.401 99.3672 12.9896 99.3672 13.7656C99.3672 14.75 98.9609 15.5078 98.1484 16.0391C97.3359 16.5755 96.1667 16.8438 94.6406 16.8438ZM94.7109 15.5547C95.3516 15.5547 95.8906 15.4922 96.3281 15.3672C96.7656 15.2422 97.0964 15.0625 97.3203 14.8281C97.5443 14.599 97.6562 14.3255 97.6562 14.0078C97.6562 13.7266 97.5859 13.5104 97.4453 13.3594C97.3047 13.2083 97.0938 13.1042 96.8125 13.0469C96.5312 12.9896 96.1823 12.9609 95.7656 12.9609H94.4062C94.0677 12.9609 93.7682 13.013 93.5078 13.1172C93.2474 13.2266 93.0443 13.3828 92.8984 13.5859C92.7578 13.7891 92.6875 14.0339 92.6875 14.3203C92.6875 14.7161 92.862 15.0208 93.2109 15.2344C93.5651 15.4479 94.0651 15.5547 94.7109 15.5547ZM95.0703 8.82031C95.6068 8.82031 96.0052 8.67448 96.2656 8.38281C96.526 8.08594 96.6562 7.66927 96.6562 7.13281C96.6562 6.54948 96.5208 6.11198 96.25 5.82031C95.9844 5.52865 95.5885 5.38281 95.0625 5.38281C94.5469 5.38281 94.1536 5.53125 93.8828 5.82812C93.6172 6.125 93.4844 6.5651 93.4844 7.14844C93.4844 7.67448 93.6172 8.08594 93.8828 8.38281C94.1536 8.67448 94.5495 8.82031 95.0703 8.82031ZM100.781 12.0312C100.781 11.6042 100.891 11.3047 101.109 11.1328C101.333 10.9557 101.604 10.8672 101.922 10.8672C102.24 10.8672 102.51 10.9557 102.734 11.1328C102.964 11.3047 103.078 11.6042 103.078 12.0312C103.078 12.4479 102.964 12.75 102.734 12.9375C102.51 13.1198 102.24 13.2109 101.922 13.2109C101.604 13.2109 101.333 13.1198 101.109 12.9375C100.891 12.75 100.781 12.4479 100.781 12.0312ZM105.172 12.0312C105.172 11.6042 105.281 11.3047 105.5 11.1328C105.724 10.9557 105.995 10.8672 106.312 10.8672C106.63 10.8672 106.901 10.9557 107.125 11.1328C107.354 11.3047 107.469 11.6042 107.469 12.0312C107.469 12.4479 107.354 12.75 107.125 12.9375C106.901 13.1198 106.63 13.2109 106.312 13.2109C105.995 13.2109 105.724 13.1198 105.5 12.9375C105.281 12.75 105.172 12.4479 105.172 12.0312ZM109.562 12.0312C109.562 11.6042 109.672 11.3047 109.891 11.1328C110.115 10.9557 110.385 10.8672 110.703 10.8672C111.021 10.8672 111.292 10.9557 111.516 11.1328C111.745 11.3047 111.859 11.6042 111.859 12.0312C111.859 12.4479 111.745 12.75 111.516 12.9375C111.292 13.1198 111.021 13.2109 110.703 13.2109C110.385 13.2109 110.115 13.1198 109.891 12.9375C109.672 12.75 109.562 12.4479 109.562 12.0312Z" fill="#8C8888"/>
</svg>
