<svg width="105" height="44" viewBox="0 0 105 44" fill="none" xmlns="http://www.w3.org/2000/svg">
<rect width="105" height="44" rx="22" fill="#F6EEEE"/>
<path d="M32.25 13H16.5C16.3011 13 16.1103 13.079 15.9697 13.2197C15.829 13.3603 15.75 13.5511 15.75 13.75V22.75C15.7514 23.9431 16.2259 25.0869 17.0695 25.9305C17.9131 26.7741 19.0569 27.2486 20.25 27.25H25.5C26.6931 27.2486 27.8369 26.7741 28.6805 25.9305C29.5241 25.0869 29.9986 23.9431 30 22.75V19H30.8438C31.6143 18.9991 32.353 18.6927 32.8978 18.1478C33.4427 17.603 33.7491 16.8643 33.75 16.0938V14.5C33.75 14.1022 33.592 13.7206 33.3107 13.4393C33.0294 13.158 32.6478 13 32.25 13ZM32.25 16.0938C32.25 16.4667 32.1018 16.8244 31.8381 17.0881C31.5744 17.3518 31.2167 17.5 30.8438 17.5H30V14.5H32.25V16.0938ZM30.75 28.75H15C14.8011 28.75 14.6103 28.829 14.4697 28.9697C14.329 29.1103 14.25 29.3011 14.25 29.5C14.25 29.6989 14.329 29.8897 14.4697 30.0303C14.6103 30.171 14.8011 30.25 15 30.25H30.75C30.9489 30.25 31.1397 30.171 31.2803 30.0303C31.421 29.8897 31.5 29.6989 31.5 29.5C31.5 29.3011 31.421 29.1103 31.2803 28.9697C31.1397 28.829 30.9489 28.75 30.75 28.75Z" fill="#8C8888"/>
<path d="M49.6094 22.2266H51.9453C51.8984 22.9922 51.6875 23.6719 51.3125 24.2656C50.9427 24.8594 50.4245 25.3229 49.7578 25.6562C49.0964 25.9896 48.2995 26.1562 47.3672 26.1562C46.638 26.1562 45.9844 26.0312 45.4062 25.7812C44.8281 25.526 44.3333 25.1615 43.9219 24.6875C43.5156 24.2135 43.2057 23.6406 42.9922 22.9688C42.7786 22.2969 42.6719 21.5443 42.6719 20.7109V19.9219C42.6719 19.0885 42.7812 18.3359 43 17.6641C43.224 16.987 43.5417 16.4115 43.9531 15.9375C44.3698 15.4635 44.8672 15.099 45.4453 14.8438C46.0234 14.5885 46.6693 14.4609 47.3828 14.4609C48.3307 14.4609 49.1302 14.6328 49.7812 14.9766C50.4375 15.3203 50.9453 15.7943 51.3047 16.3984C51.6693 17.0026 51.888 17.6901 51.9609 18.4609H49.6172C49.5911 18.0026 49.5 17.6146 49.3438 17.2969C49.1875 16.974 48.9505 16.7318 48.6328 16.5703C48.3203 16.4036 47.9036 16.3203 47.3828 16.3203C46.9922 16.3203 46.651 16.3932 46.3594 16.5391C46.0677 16.6849 45.8229 16.9062 45.625 17.2031C45.4271 17.5 45.2786 17.875 45.1797 18.3281C45.0859 18.776 45.0391 19.3021 45.0391 19.9062V20.7109C45.0391 21.2995 45.0833 21.8177 45.1719 22.2656C45.2604 22.7083 45.3958 23.0833 45.5781 23.3906C45.7656 23.6927 46.0052 23.9219 46.2969 24.0781C46.5938 24.2292 46.9505 24.3047 47.3672 24.3047C47.8568 24.3047 48.2604 24.2266 48.5781 24.0703C48.8958 23.9141 49.138 23.6823 49.3047 23.375C49.4766 23.0677 49.5781 22.6849 49.6094 22.2266ZM57.9062 24.0938V20.3281C57.9062 20.0573 57.862 19.8255 57.7734 19.6328C57.6849 19.4349 57.5469 19.2812 57.3594 19.1719C57.1771 19.0625 56.9401 19.0078 56.6484 19.0078C56.3984 19.0078 56.1823 19.0521 56 19.1406C55.8177 19.224 55.6771 19.3464 55.5781 19.5078C55.4792 19.6641 55.4297 19.849 55.4297 20.0625H53.1797C53.1797 19.7031 53.263 19.362 53.4297 19.0391C53.5964 18.7161 53.8385 18.4323 54.1562 18.1875C54.474 17.9375 54.8516 17.7422 55.2891 17.6016C55.7318 17.4609 56.2266 17.3906 56.7734 17.3906C57.4297 17.3906 58.013 17.5 58.5234 17.7188C59.0339 17.9375 59.4349 18.2656 59.7266 18.7031C60.0234 19.1406 60.1719 19.6875 60.1719 20.3438V23.9609C60.1719 24.4245 60.2005 24.8047 60.2578 25.1016C60.3151 25.3932 60.3984 25.6484 60.5078 25.8672V26H58.2344C58.125 25.7708 58.0417 25.4844 57.9844 25.1406C57.9323 24.7917 57.9062 24.4427 57.9062 24.0938ZM58.2031 20.8516L58.2188 22.125H56.9609C56.6641 22.125 56.4062 22.1589 56.1875 22.2266C55.9688 22.2943 55.7891 22.3906 55.6484 22.5156C55.5078 22.6354 55.4036 22.776 55.3359 22.9375C55.2734 23.099 55.2422 23.276 55.2422 23.4688C55.2422 23.6615 55.2865 23.8359 55.375 23.9922C55.4635 24.1432 55.5911 24.263 55.7578 24.3516C55.9245 24.4349 56.1198 24.4766 56.3438 24.4766C56.6823 24.4766 56.9766 24.4089 57.2266 24.2734C57.4766 24.138 57.6693 23.9714 57.8047 23.7734C57.9453 23.5755 58.0182 23.388 58.0234 23.2109L58.6172 24.1641C58.5339 24.3776 58.4193 24.599 58.2734 24.8281C58.1328 25.0573 57.9531 25.2734 57.7344 25.4766C57.5156 25.6745 57.2526 25.8385 56.9453 25.9688C56.638 26.0938 56.2734 26.1562 55.8516 26.1562C55.3151 26.1562 54.8281 26.0495 54.3906 25.8359C53.9583 25.6172 53.6146 25.3177 53.3594 24.9375C53.1094 24.5521 52.9844 24.1146 52.9844 23.625C52.9844 23.1823 53.0677 22.7891 53.2344 22.4453C53.401 22.1016 53.6458 21.8125 53.9688 21.5781C54.2969 21.3385 54.7057 21.1589 55.1953 21.0391C55.6849 20.9141 56.2526 20.8516 56.8984 20.8516H58.2031ZM64.7734 26H62.5078V16.7969C62.5078 16.1562 62.6328 15.6172 62.8828 15.1797C63.138 14.737 63.4948 14.4036 63.9531 14.1797C64.4167 13.9505 64.9661 13.8359 65.6016 13.8359C65.8099 13.8359 66.0104 13.8516 66.2031 13.8828C66.3958 13.9089 66.5833 13.9427 66.7656 13.9844L66.7422 15.6797C66.6432 15.6536 66.5391 15.6354 66.4297 15.625C66.3203 15.6146 66.1927 15.6094 66.0469 15.6094C65.776 15.6094 65.5443 15.6562 65.3516 15.75C65.1641 15.8385 65.0208 15.9714 64.9219 16.1484C64.8229 16.3255 64.7734 16.5417 64.7734 16.7969V26ZM66.4609 17.5469V19.1406H61.25V17.5469H66.4609ZM71.3438 26.1562C70.6875 26.1562 70.099 26.0521 69.5781 25.8438C69.0573 25.6302 68.6146 25.3359 68.25 24.9609C67.8906 24.5859 67.6146 24.151 67.4219 23.6562C67.2292 23.1562 67.1328 22.625 67.1328 22.0625V21.75C67.1328 21.1094 67.224 20.5234 67.4062 19.9922C67.5885 19.4609 67.849 19 68.1875 18.6094C68.5312 18.2188 68.9479 17.9193 69.4375 17.7109C69.9271 17.4974 70.4792 17.3906 71.0938 17.3906C71.6927 17.3906 72.224 17.4896 72.6875 17.6875C73.151 17.8854 73.5391 18.1667 73.8516 18.5312C74.1693 18.8958 74.4089 19.3333 74.5703 19.8438C74.7318 20.349 74.8125 20.9115 74.8125 21.5312V22.4688H68.0938V20.9688H72.6016V20.7969C72.6016 20.4844 72.5443 20.2057 72.4297 19.9609C72.3203 19.7109 72.1536 19.513 71.9297 19.3672C71.7057 19.2214 71.4193 19.1484 71.0703 19.1484C70.7734 19.1484 70.5182 19.2135 70.3047 19.3438C70.0911 19.474 69.9167 19.6562 69.7812 19.8906C69.651 20.125 69.5521 20.401 69.4844 20.7188C69.4219 21.0312 69.3906 21.375 69.3906 21.75V22.0625C69.3906 22.401 69.4375 22.7135 69.5312 23C69.6302 23.2865 69.7682 23.5339 69.9453 23.7422C70.1276 23.9505 70.3464 24.112 70.6016 24.2266C70.862 24.3411 71.1562 24.3984 71.4844 24.3984C71.8906 24.3984 72.2682 24.3203 72.6172 24.1641C72.9714 24.0026 73.276 23.7604 73.5312 23.4375L74.625 24.625C74.4479 24.8802 74.2057 25.125 73.8984 25.3594C73.5964 25.5938 73.2318 25.7865 72.8047 25.9375C72.3776 26.0833 71.8906 26.1562 71.3438 26.1562ZM80.6641 23.6641C80.6641 23.5026 80.6172 23.3568 80.5234 23.2266C80.4297 23.0964 80.2552 22.9766 80 22.8672C79.75 22.7526 79.388 22.6484 78.9141 22.5547C78.487 22.4609 78.0885 22.3438 77.7188 22.2031C77.3542 22.0573 77.0365 21.8828 76.7656 21.6797C76.5 21.4766 76.2917 21.237 76.1406 20.9609C75.9896 20.6797 75.9141 20.3594 75.9141 20C75.9141 19.6458 75.9896 19.3125 76.1406 19C76.2969 18.6875 76.5182 18.4115 76.8047 18.1719C77.0964 17.9271 77.4505 17.737 77.8672 17.6016C78.2891 17.4609 78.763 17.3906 79.2891 17.3906C80.0234 17.3906 80.6536 17.5078 81.1797 17.7422C81.7109 17.9766 82.1172 18.2995 82.3984 18.7109C82.6849 19.1172 82.8281 19.5807 82.8281 20.1016H80.5781C80.5781 19.8828 80.5312 19.6875 80.4375 19.5156C80.349 19.3385 80.2083 19.2005 80.0156 19.1016C79.8281 18.9974 79.5833 18.9453 79.2812 18.9453C79.0312 18.9453 78.8151 18.9896 78.6328 19.0781C78.4505 19.1615 78.3099 19.276 78.2109 19.4219C78.1172 19.5625 78.0703 19.7188 78.0703 19.8906C78.0703 20.0208 78.0964 20.138 78.1484 20.2422C78.2057 20.3411 78.2969 20.4323 78.4219 20.5156C78.5469 20.599 78.7083 20.6771 78.9062 20.75C79.1094 20.8177 79.3594 20.8802 79.6562 20.9375C80.2656 21.0625 80.8099 21.2266 81.2891 21.4297C81.7682 21.6276 82.1484 21.8984 82.4297 22.2422C82.7109 22.5807 82.8516 23.026 82.8516 23.5781C82.8516 23.9531 82.7682 24.2969 82.6016 24.6094C82.4349 24.9219 82.1953 25.1953 81.8828 25.4297C81.5703 25.6589 81.1953 25.8385 80.7578 25.9688C80.3255 26.0938 79.8385 26.1562 79.2969 26.1562C78.5104 26.1562 77.8438 26.0156 77.2969 25.7344C76.7552 25.4531 76.3438 25.0964 76.0625 24.6641C75.7865 24.2266 75.6484 23.7786 75.6484 23.3203H77.7812C77.7917 23.6276 77.8698 23.875 78.0156 24.0625C78.1667 24.25 78.3568 24.3854 78.5859 24.4688C78.8203 24.5521 79.0729 24.5938 79.3438 24.5938C79.6354 24.5938 79.8776 24.5547 80.0703 24.4766C80.263 24.3932 80.4089 24.2839 80.5078 24.1484C80.612 24.0078 80.6641 23.8464 80.6641 23.6641Z" fill="#8C8888"/>
</svg>
