<svg width="131" height="44" viewBox="0 0 131 44" fill="none" xmlns="http://www.w3.org/2000/svg">
<rect width="131" height="44" rx="22" fill="#F6EEEE"/>
<path d="M15 15.15L18.15 12L21.3 15.15H15ZM26.7 15.15L29.85 12L33 15.15H26.7Z" stroke="#8C8888" stroke-width="2" stroke-linecap="round" stroke-linejoin="round"/>
<path d="M33 30V21.9H31.2V17.85H28.5V21.9H25.8V19.65L24 17.85L22.2 19.65V21.9H19.5V17.85H16.8V21.9H15V30H21.3V28.2C21.3 27.4839 21.5845 26.7971 22.0908 26.2908C22.5972 25.7844 23.2839 25.5 24 25.5C24.7161 25.5 25.4028 25.7844 25.9092 26.2908C26.4155 26.7971 26.7 27.4839 26.7 28.2V30H33Z" fill="#8C8888" stroke="#8C8888" stroke-width="2" stroke-linecap="round" stroke-linejoin="round"/>
<path d="M16.3501 15.15H19.9501V17.85H16.3501V15.15ZM28.0501 15.15H31.6501V17.85H28.0501V15.15Z" stroke="#8C8888" stroke-width="2" stroke-linecap="round" stroke-linejoin="round"/>
<path d="M51.6016 20.2578V22.0859H45.6641V20.2578H51.6016ZM46.3594 15.625V27H44.0156V15.625H46.3594ZM53.2734 15.625V27H50.9375V15.625H53.2734ZM57.5469 18.5469V27H55.2891V18.5469H57.5469ZM55.1484 16.3438C55.1484 16.0156 55.263 15.7448 55.4922 15.5312C55.7214 15.3177 56.0286 15.2109 56.4141 15.2109C56.7943 15.2109 57.099 15.3177 57.3281 15.5312C57.5625 15.7448 57.6797 16.0156 57.6797 16.3438C57.6797 16.6719 57.5625 16.9427 57.3281 17.1562C57.099 17.3698 56.7943 17.4766 56.4141 17.4766C56.0286 17.4766 55.7214 17.3698 55.4922 17.1562C55.263 16.9427 55.1484 16.6719 55.1484 16.3438ZM63.9766 24.6641C63.9766 24.5026 63.9297 24.3568 63.8359 24.2266C63.7422 24.0964 63.5677 23.9766 63.3125 23.8672C63.0625 23.7526 62.7005 23.6484 62.2266 23.5547C61.7995 23.4609 61.401 23.3438 61.0312 23.2031C60.6667 23.0573 60.349 22.8828 60.0781 22.6797C59.8125 22.4766 59.6042 22.237 59.4531 21.9609C59.3021 21.6797 59.2266 21.3594 59.2266 21C59.2266 20.6458 59.3021 20.3125 59.4531 20C59.6094 19.6875 59.8307 19.4115 60.1172 19.1719C60.4089 18.9271 60.763 18.737 61.1797 18.6016C61.6016 18.4609 62.0755 18.3906 62.6016 18.3906C63.3359 18.3906 63.9661 18.5078 64.4922 18.7422C65.0234 18.9766 65.4297 19.2995 65.7109 19.7109C65.9974 20.1172 66.1406 20.5807 66.1406 21.1016H63.8906C63.8906 20.8828 63.8438 20.6875 63.75 20.5156C63.6615 20.3385 63.5208 20.2005 63.3281 20.1016C63.1406 19.9974 62.8958 19.9453 62.5938 19.9453C62.3438 19.9453 62.1276 19.9896 61.9453 20.0781C61.763 20.1615 61.6224 20.276 61.5234 20.4219C61.4297 20.5625 61.3828 20.7188 61.3828 20.8906C61.3828 21.0208 61.4089 21.138 61.4609 21.2422C61.5182 21.3411 61.6094 21.4323 61.7344 21.5156C61.8594 21.599 62.0208 21.6771 62.2188 21.75C62.4219 21.8177 62.6719 21.8802 62.9688 21.9375C63.5781 22.0625 64.1224 22.2266 64.6016 22.4297C65.0807 22.6276 65.4609 22.8984 65.7422 23.2422C66.0234 23.5807 66.1641 24.026 66.1641 24.5781C66.1641 24.9531 66.0807 25.2969 65.9141 25.6094C65.7474 25.9219 65.5078 26.1953 65.1953 26.4297C64.8828 26.6589 64.5078 26.8385 64.0703 26.9688C63.638 27.0938 63.151 27.1562 62.6094 27.1562C61.8229 27.1562 61.1562 27.0156 60.6094 26.7344C60.0677 26.4531 59.6562 26.0964 59.375 25.6641C59.099 25.2266 58.9609 24.7786 58.9609 24.3203H61.0938C61.1042 24.6276 61.1823 24.875 61.3281 25.0625C61.4792 25.25 61.6693 25.3854 61.8984 25.4688C62.1328 25.5521 62.3854 25.5938 62.6562 25.5938C62.9479 25.5938 63.1901 25.5547 63.3828 25.4766C63.5755 25.3932 63.7214 25.2839 63.8203 25.1484C63.9245 25.0078 63.9766 24.8464 63.9766 24.6641ZM71.7656 18.5469V20.1406H66.8438V18.5469H71.7656ZM68.0625 16.4609H70.3125V24.4531C70.3125 24.6979 70.3438 24.8854 70.4062 25.0156C70.474 25.1458 70.5729 25.237 70.7031 25.2891C70.8333 25.3359 70.9974 25.3594 71.1953 25.3594C71.3359 25.3594 71.4609 25.3542 71.5703 25.3438C71.6849 25.3281 71.7812 25.3125 71.8594 25.2969L71.8672 26.9531C71.6745 27.0156 71.4661 27.0651 71.2422 27.1016C71.0182 27.138 70.7708 27.1562 70.5 27.1562C70.0052 27.1562 69.5729 27.0755 69.2031 26.9141C68.8385 26.7474 68.5573 26.4818 68.3594 26.1172C68.1615 25.7526 68.0625 25.2734 68.0625 24.6797V16.4609ZM72.4844 22.8594V22.6953C72.4844 22.0755 72.5729 21.5052 72.75 20.9844C72.9271 20.4583 73.1849 20.0026 73.5234 19.6172C73.862 19.2318 74.2786 18.9323 74.7734 18.7188C75.2682 18.5 75.8359 18.3906 76.4766 18.3906C77.1172 18.3906 77.6875 18.5 78.1875 18.7188C78.6875 18.9323 79.1068 19.2318 79.4453 19.6172C79.7891 20.0026 80.0495 20.4583 80.2266 20.9844C80.4036 21.5052 80.4922 22.0755 80.4922 22.6953V22.8594C80.4922 23.474 80.4036 24.0443 80.2266 24.5703C80.0495 25.0911 79.7891 25.5469 79.4453 25.9375C79.1068 26.3229 78.6901 26.6224 78.1953 26.8359C77.7005 27.0495 77.1328 27.1562 76.4922 27.1562C75.8516 27.1562 75.2812 27.0495 74.7812 26.8359C74.2865 26.6224 73.8672 26.3229 73.5234 25.9375C73.1849 25.5469 72.9271 25.0911 72.75 24.5703C72.5729 24.0443 72.4844 23.474 72.4844 22.8594ZM74.7344 22.6953V22.8594C74.7344 23.2135 74.7656 23.5443 74.8281 23.8516C74.8906 24.1589 74.9896 24.4297 75.125 24.6641C75.2656 24.8932 75.4479 25.0729 75.6719 25.2031C75.8958 25.3333 76.1693 25.3984 76.4922 25.3984C76.8047 25.3984 77.0729 25.3333 77.2969 25.2031C77.5208 25.0729 77.7005 24.8932 77.8359 24.6641C77.9714 24.4297 78.0703 24.1589 78.1328 23.8516C78.2005 23.5443 78.2344 23.2135 78.2344 22.8594V22.6953C78.2344 22.3516 78.2005 22.0286 78.1328 21.7266C78.0703 21.4193 77.9688 21.1484 77.8281 20.9141C77.6927 20.6745 77.513 20.487 77.2891 20.3516C77.0651 20.2161 76.7943 20.1484 76.4766 20.1484C76.1589 20.1484 75.888 20.2161 75.6641 20.3516C75.4453 20.487 75.2656 20.6745 75.125 20.9141C74.9896 21.1484 74.8906 21.4193 74.8281 21.7266C74.7656 22.0286 74.7344 22.3516 74.7344 22.6953ZM84.125 20.3906V27H81.875V18.5469H83.9922L84.125 20.3906ZM86.6719 18.4922L86.6328 20.5781C86.5234 20.5625 86.3906 20.5495 86.2344 20.5391C86.0833 20.5234 85.9453 20.5156 85.8203 20.5156C85.5026 20.5156 85.2266 20.5573 84.9922 20.6406C84.763 20.7188 84.5703 20.8359 84.4141 20.9922C84.263 21.1484 84.1484 21.3385 84.0703 21.5625C83.9974 21.7865 83.9557 22.0417 83.9453 22.3281L83.4922 22.1875C83.4922 21.6406 83.5469 21.138 83.6562 20.6797C83.7656 20.2161 83.9245 19.8125 84.1328 19.4688C84.3464 19.125 84.6068 18.8594 84.9141 18.6719C85.2214 18.4844 85.5729 18.3906 85.9688 18.3906C86.0938 18.3906 86.2214 18.401 86.3516 18.4219C86.4818 18.4375 86.5885 18.4609 86.6719 18.4922ZM90.1094 18.5469V27H87.8516V18.5469H90.1094ZM87.7109 16.3438C87.7109 16.0156 87.8255 15.7448 88.0547 15.5312C88.2839 15.3177 88.5911 15.2109 88.9766 15.2109C89.3568 15.2109 89.6615 15.3177 89.8906 15.5312C90.125 15.7448 90.2422 16.0156 90.2422 16.3438C90.2422 16.6719 90.125 16.9427 89.8906 17.1562C89.6615 17.3698 89.3568 17.4766 88.9766 17.4766C88.5911 17.4766 88.2839 17.3698 88.0547 17.1562C87.8255 16.9427 87.7109 16.6719 87.7109 16.3438ZM95.4609 25.3984C95.737 25.3984 95.9818 25.3464 96.1953 25.2422C96.4089 25.1328 96.5755 24.9818 96.6953 24.7891C96.8203 24.5911 96.8854 24.3594 96.8906 24.0938H99.0078C99.0026 24.6875 98.8438 25.2161 98.5312 25.6797C98.2188 26.138 97.7995 26.5 97.2734 26.7656C96.7474 27.026 96.1589 27.1562 95.5078 27.1562C94.8516 27.1562 94.2786 27.0469 93.7891 26.8281C93.3047 26.6094 92.901 26.3073 92.5781 25.9219C92.2552 25.5312 92.013 25.0781 91.8516 24.5625C91.6901 24.0417 91.6094 23.4844 91.6094 22.8906V22.6641C91.6094 22.0651 91.6901 21.5078 91.8516 20.9922C92.013 20.4714 92.2552 20.0182 92.5781 19.6328C92.901 19.2422 93.3047 18.9375 93.7891 18.7188C94.2734 18.5 94.8411 18.3906 95.4922 18.3906C96.1849 18.3906 96.7917 18.5234 97.3125 18.7891C97.8385 19.0547 98.25 19.4349 98.5469 19.9297C98.849 20.4193 99.0026 21 99.0078 21.6719H96.8906C96.8854 21.3906 96.8255 21.1354 96.7109 20.9062C96.6016 20.6771 96.4401 20.4948 96.2266 20.3594C96.0182 20.2188 95.7604 20.1484 95.4531 20.1484C95.125 20.1484 94.8568 20.2188 94.6484 20.3594C94.4401 20.4948 94.2786 20.6823 94.1641 20.9219C94.0495 21.1562 93.9688 21.4245 93.9219 21.7266C93.8802 22.0234 93.8594 22.3359 93.8594 22.6641V22.8906C93.8594 23.2188 93.8802 23.5339 93.9219 23.8359C93.9635 24.138 94.0417 24.4062 94.1562 24.6406C94.276 24.875 94.4401 25.0599 94.6484 25.1953C94.8568 25.3307 95.1276 25.3984 95.4609 25.3984ZM104.875 25.0938V21.3281C104.875 21.0573 104.831 20.8255 104.742 20.6328C104.654 20.4349 104.516 20.2812 104.328 20.1719C104.146 20.0625 103.909 20.0078 103.617 20.0078C103.367 20.0078 103.151 20.0521 102.969 20.1406C102.786 20.224 102.646 20.3464 102.547 20.5078C102.448 20.6641 102.398 20.849 102.398 21.0625H100.148C100.148 20.7031 100.232 20.362 100.398 20.0391C100.565 19.7161 100.807 19.4323 101.125 19.1875C101.443 18.9375 101.82 18.7422 102.258 18.6016C102.701 18.4609 103.195 18.3906 103.742 18.3906C104.398 18.3906 104.982 18.5 105.492 18.7188C106.003 18.9375 106.404 19.2656 106.695 19.7031C106.992 20.1406 107.141 20.6875 107.141 21.3438V24.9609C107.141 25.4245 107.169 25.8047 107.227 26.1016C107.284 26.3932 107.367 26.6484 107.477 26.8672V27H105.203C105.094 26.7708 105.01 26.4844 104.953 26.1406C104.901 25.7917 104.875 25.4427 104.875 25.0938ZM105.172 21.8516L105.188 23.125H103.93C103.633 23.125 103.375 23.1589 103.156 23.2266C102.938 23.2943 102.758 23.3906 102.617 23.5156C102.477 23.6354 102.372 23.776 102.305 23.9375C102.242 24.099 102.211 24.276 102.211 24.4688C102.211 24.6615 102.255 24.8359 102.344 24.9922C102.432 25.1432 102.56 25.263 102.727 25.3516C102.893 25.4349 103.089 25.4766 103.312 25.4766C103.651 25.4766 103.945 25.4089 104.195 25.2734C104.445 25.138 104.638 24.9714 104.773 24.7734C104.914 24.5755 104.987 24.388 104.992 24.2109L105.586 25.1641C105.503 25.3776 105.388 25.599 105.242 25.8281C105.102 26.0573 104.922 26.2734 104.703 26.4766C104.484 26.6745 104.221 26.8385 103.914 26.9688C103.607 27.0938 103.242 27.1562 102.82 27.1562C102.284 27.1562 101.797 27.0495 101.359 26.8359C100.927 26.6172 100.583 26.3177 100.328 25.9375C100.078 25.5521 99.9531 25.1146 99.9531 24.625C99.9531 24.1823 100.036 23.7891 100.203 23.4453C100.37 23.1016 100.615 22.8125 100.938 22.5781C101.266 22.3385 101.674 22.1589 102.164 22.0391C102.654 21.9141 103.221 21.8516 103.867 21.8516H105.172ZM111.25 15V27H108.992V15H111.25Z" fill="#8C8888"/>
</svg>
