<svg width="130" height="44" viewBox="0 0 130 44" fill="none" xmlns="http://www.w3.org/2000/svg">
<rect width="130" height="44" rx="22" fill="#F6EEEE"/>
<path d="M25 31L19 28.9L14.35 30.7C14.0167 30.8333 13.7083 30.796 13.425 30.588C13.1417 30.38 13 30.1007 13 29.75V15.75C13 15.5333 13.0627 15.3417 13.188 15.175C13.3133 15.0083 13.484 14.8833 13.7 14.8L19 13L25 15.1L29.65 13.3C29.9833 13.1667 30.2917 13.2043 30.575 13.413C30.8583 13.6217 31 13.9007 31 14.25V28.25C31 28.4667 30.9377 28.6583 30.813 28.825C30.6883 28.9917 30.5173 29.1167 30.3 29.2L25 31ZM24 28.55V16.85L20 15.45V27.15L24 28.55ZM26 28.55L29 27.55V15.7L26 16.85V28.55ZM15 28.3L18 27.15V15.45L15 16.45V28.3Z" fill="#8C8888"/>
<path d="M44.1172 23.625L46.7969 14.625H49.4062L45.4453 26H43.7266L44.1172 23.625ZM41.6484 14.625L44.3203 23.625L44.7266 26H42.9922L39.0547 14.625H41.6484ZM52.7031 17.5469V26H50.4453V17.5469H52.7031ZM50.3047 15.3438C50.3047 15.0156 50.4193 14.7448 50.6484 14.5312C50.8776 14.3177 51.1849 14.2109 51.5703 14.2109C51.9505 14.2109 52.2552 14.3177 52.4844 14.5312C52.7188 14.7448 52.8359 15.0156 52.8359 15.3438C52.8359 15.6719 52.7188 15.9427 52.4844 16.1562C52.2552 16.3698 51.9505 16.4766 51.5703 16.4766C51.1849 16.4766 50.8776 16.3698 50.6484 16.1562C50.4193 15.9427 50.3047 15.6719 50.3047 15.3438ZM58.4531 26.1562C57.7969 26.1562 57.2083 26.0521 56.6875 25.8438C56.1667 25.6302 55.724 25.3359 55.3594 24.9609C55 24.5859 54.724 24.151 54.5312 23.6562C54.3385 23.1562 54.2422 22.625 54.2422 22.0625V21.75C54.2422 21.1094 54.3333 20.5234 54.5156 19.9922C54.6979 19.4609 54.9583 19 55.2969 18.6094C55.6406 18.2188 56.0573 17.9193 56.5469 17.7109C57.0365 17.4974 57.5885 17.3906 58.2031 17.3906C58.8021 17.3906 59.3333 17.4896 59.7969 17.6875C60.2604 17.8854 60.6484 18.1667 60.9609 18.5312C61.2786 18.8958 61.5182 19.3333 61.6797 19.8438C61.8411 20.349 61.9219 20.9115 61.9219 21.5312V22.4688H55.2031V20.9688H59.7109V20.7969C59.7109 20.4844 59.6536 20.2057 59.5391 19.9609C59.4297 19.7109 59.263 19.513 59.0391 19.3672C58.8151 19.2214 58.5286 19.1484 58.1797 19.1484C57.8828 19.1484 57.6276 19.2135 57.4141 19.3438C57.2005 19.474 57.026 19.6562 56.8906 19.8906C56.7604 20.125 56.6615 20.401 56.5938 20.7188C56.5312 21.0312 56.5 21.375 56.5 21.75V22.0625C56.5 22.401 56.5469 22.7135 56.6406 23C56.7396 23.2865 56.8776 23.5339 57.0547 23.7422C57.237 23.9505 57.4557 24.112 57.7109 24.2266C57.9714 24.3411 58.2656 24.3984 58.5938 24.3984C59 24.3984 59.3776 24.3203 59.7266 24.1641C60.0807 24.0026 60.3854 23.7604 60.6406 23.4375L61.7344 24.625C61.5573 24.8802 61.3151 25.125 61.0078 25.3594C60.7057 25.5938 60.3411 25.7865 59.9141 25.9375C59.487 26.0833 59 26.1562 58.4531 26.1562ZM65.6172 23.8125L67.375 17.5469H68.8047L68.3438 20.0078L66.5859 26H65.3906L65.6172 23.8125ZM64.7266 17.5469L65.9844 23.8047L66.1016 26H64.6953L62.5547 17.5469H64.7266ZM70.4141 23.7031L71.6406 17.5469H73.8203L71.6797 26H70.2812L70.4141 23.7031ZM69 17.5469L70.75 23.7656L70.9922 26H69.7891L68.0312 20.0156L67.5859 17.5469H69ZM80.1484 14.625H82.1328L85.0547 22.9766L87.9766 14.625H89.9609L85.8516 26H84.2578L80.1484 14.625ZM79.0781 14.625H81.0547L81.4141 22.7656V26H79.0781V14.625ZM89.0547 14.625H91.0391V26H88.6953V22.7656L89.0547 14.625ZM97.5156 24.0938V20.3281C97.5156 20.0573 97.4714 19.8255 97.3828 19.6328C97.2943 19.4349 97.1562 19.2812 96.9688 19.1719C96.7865 19.0625 96.5495 19.0078 96.2578 19.0078C96.0078 19.0078 95.7917 19.0521 95.6094 19.1406C95.4271 19.224 95.2865 19.3464 95.1875 19.5078C95.0885 19.6641 95.0391 19.849 95.0391 20.0625H92.7891C92.7891 19.7031 92.8724 19.362 93.0391 19.0391C93.2057 18.7161 93.4479 18.4323 93.7656 18.1875C94.0833 17.9375 94.4609 17.7422 94.8984 17.6016C95.3411 17.4609 95.8359 17.3906 96.3828 17.3906C97.0391 17.3906 97.6224 17.5 98.1328 17.7188C98.6432 17.9375 99.0443 18.2656 99.3359 18.7031C99.6328 19.1406 99.7812 19.6875 99.7812 20.3438V23.9609C99.7812 24.4245 99.8099 24.8047 99.8672 25.1016C99.9245 25.3932 100.008 25.6484 100.117 25.8672V26H97.8438C97.7344 25.7708 97.651 25.4844 97.5938 25.1406C97.5417 24.7917 97.5156 24.4427 97.5156 24.0938ZM97.8125 20.8516L97.8281 22.125H96.5703C96.2734 22.125 96.0156 22.1589 95.7969 22.2266C95.5781 22.2943 95.3984 22.3906 95.2578 22.5156C95.1172 22.6354 95.013 22.776 94.9453 22.9375C94.8828 23.099 94.8516 23.276 94.8516 23.4688C94.8516 23.6615 94.8958 23.8359 94.9844 23.9922C95.0729 24.1432 95.2005 24.263 95.3672 24.3516C95.5339 24.4349 95.7292 24.4766 95.9531 24.4766C96.2917 24.4766 96.5859 24.4089 96.8359 24.2734C97.0859 24.138 97.2786 23.9714 97.4141 23.7734C97.5547 23.5755 97.6276 23.388 97.6328 23.2109L98.2266 24.1641C98.1432 24.3776 98.0286 24.599 97.8828 24.8281C97.7422 25.0573 97.5625 25.2734 97.3438 25.4766C97.125 25.6745 96.862 25.8385 96.5547 25.9688C96.2474 26.0938 95.8828 26.1562 95.4609 26.1562C94.9245 26.1562 94.4375 26.0495 94 25.8359C93.5677 25.6172 93.224 25.3177 92.9688 24.9375C92.7188 24.5521 92.5938 24.1146 92.5938 23.625C92.5938 23.1823 92.6771 22.7891 92.8438 22.4453C93.0104 22.1016 93.2552 21.8125 93.5781 21.5781C93.9062 21.3385 94.3151 21.1589 94.8047 21.0391C95.2943 20.9141 95.862 20.8516 96.5078 20.8516H97.8125ZM103.766 19.1719V29.25H101.516V17.5469H103.602L103.766 19.1719ZM109.117 21.6797V21.8438C109.117 22.4583 109.044 23.0286 108.898 23.5547C108.758 24.0807 108.549 24.5391 108.273 24.9297C107.997 25.3151 107.654 25.6172 107.242 25.8359C106.836 26.0495 106.367 26.1562 105.836 26.1562C105.32 26.1562 104.872 26.0521 104.492 25.8438C104.112 25.6354 103.792 25.3438 103.531 24.9688C103.276 24.5885 103.07 24.1484 102.914 23.6484C102.758 23.1484 102.638 22.612 102.555 22.0391V21.6094C102.638 20.9948 102.758 20.4323 102.914 19.9219C103.07 19.4062 103.276 18.9609 103.531 18.5859C103.792 18.2057 104.109 17.9115 104.484 17.7031C104.865 17.4948 105.31 17.3906 105.82 17.3906C106.357 17.3906 106.828 17.4922 107.234 17.6953C107.646 17.8984 107.99 18.1901 108.266 18.5703C108.547 18.9505 108.758 19.4036 108.898 19.9297C109.044 20.4557 109.117 21.0391 109.117 21.6797ZM106.859 21.8438V21.6797C106.859 21.3203 106.828 20.9896 106.766 20.6875C106.708 20.3802 106.615 20.112 106.484 19.8828C106.359 19.6536 106.193 19.4766 105.984 19.3516C105.781 19.2214 105.534 19.1562 105.242 19.1562C104.935 19.1562 104.672 19.2057 104.453 19.3047C104.24 19.4036 104.065 19.5469 103.93 19.7344C103.794 19.9219 103.693 20.1458 103.625 20.4062C103.557 20.6667 103.516 20.9609 103.5 21.2891V22.375C103.526 22.7604 103.599 23.1068 103.719 23.4141C103.839 23.7161 104.023 23.9557 104.273 24.1328C104.523 24.3099 104.852 24.3984 105.258 24.3984C105.555 24.3984 105.805 24.3333 106.008 24.2031C106.211 24.0677 106.375 23.8828 106.5 23.6484C106.63 23.4141 106.721 23.1432 106.773 22.8359C106.831 22.5286 106.859 22.1979 106.859 21.8438Z" fill="#8C8888"/>
</svg>
