<svg width="104" height="44" viewBox="0 0 104 44" fill="none" xmlns="http://www.w3.org/2000/svg">
<rect width="104" height="44" rx="22" fill="#F6EEEE"/>
<path d="M23.05 28H17.875C17.475 28 17.175 27.825 16.975 27.475C16.775 27.125 16.7917 26.7833 17.025 26.45L20 22H19.925C19.525 22 19.229 21.821 19.037 21.463C18.845 21.105 18.866 20.759 19.1 20.425L24.175 13.175C24.275 13.0417 24.4 12.9377 24.55 12.863C24.7 12.7883 24.85 12.7507 25 12.75C25.15 12.7493 25.3 12.787 25.45 12.863C25.6 12.939 25.725 13.043 25.825 13.175L30.9 20.425C31.1333 20.7583 31.1543 21.1043 30.963 21.463C30.7717 21.8217 30.4757 22.0007 30.075 22H30L32.975 26.45C33.2083 26.7833 33.225 27.125 33.025 27.475C32.825 27.825 32.525 28 32.125 28H26.95V31C26.95 31.2833 26.8543 31.521 26.663 31.713C26.4717 31.905 26.234 32.0007 25.95 32H24.05C23.7667 32 23.5293 31.904 23.338 31.712C23.1467 31.52 23.0507 31.2827 23.05 31V28Z" fill="#8C8888"/>
<path d="M47.4453 23.4453H44.5469V21.6172H47.4453C47.8932 21.6172 48.2578 21.5443 48.5391 21.3984C48.8203 21.2474 49.026 21.0391 49.1562 20.7734C49.2865 20.5078 49.3516 20.2083 49.3516 19.875C49.3516 19.5365 49.2865 19.2214 49.1562 18.9297C49.026 18.638 48.8203 18.4036 48.5391 18.2266C48.2578 18.0495 47.8932 17.9609 47.4453 17.9609H45.3594V27.5H43.0156V16.125H47.4453C48.3359 16.125 49.099 16.2865 49.7344 16.6094C50.375 16.9271 50.8646 17.3672 51.2031 17.9297C51.5417 18.4922 51.7109 19.1354 51.7109 19.8594C51.7109 20.5938 51.5417 21.2292 51.2031 21.7656C50.8646 22.3021 50.375 22.7161 49.7344 23.0078C49.099 23.2995 48.3359 23.4453 47.4453 23.4453ZM57.6562 25.5938V21.8281C57.6562 21.5573 57.612 21.3255 57.5234 21.1328C57.4349 20.9349 57.2969 20.7812 57.1094 20.6719C56.9271 20.5625 56.6901 20.5078 56.3984 20.5078C56.1484 20.5078 55.9323 20.5521 55.75 20.6406C55.5677 20.724 55.4271 20.8464 55.3281 21.0078C55.2292 21.1641 55.1797 21.349 55.1797 21.5625H52.9297C52.9297 21.2031 53.013 20.862 53.1797 20.5391C53.3464 20.2161 53.5885 19.9323 53.9062 19.6875C54.224 19.4375 54.6016 19.2422 55.0391 19.1016C55.4818 18.9609 55.9766 18.8906 56.5234 18.8906C57.1797 18.8906 57.763 19 58.2734 19.2188C58.7839 19.4375 59.1849 19.7656 59.4766 20.2031C59.7734 20.6406 59.9219 21.1875 59.9219 21.8438V25.4609C59.9219 25.9245 59.9505 26.3047 60.0078 26.6016C60.0651 26.8932 60.1484 27.1484 60.2578 27.3672V27.5H57.9844C57.875 27.2708 57.7917 26.9844 57.7344 26.6406C57.6823 26.2917 57.6562 25.9427 57.6562 25.5938ZM57.9531 22.3516L57.9688 23.625H56.7109C56.4141 23.625 56.1562 23.6589 55.9375 23.7266C55.7188 23.7943 55.5391 23.8906 55.3984 24.0156C55.2578 24.1354 55.1536 24.276 55.0859 24.4375C55.0234 24.599 54.9922 24.776 54.9922 24.9688C54.9922 25.1615 55.0365 25.3359 55.125 25.4922C55.2135 25.6432 55.3411 25.763 55.5078 25.8516C55.6745 25.9349 55.8698 25.9766 56.0938 25.9766C56.4323 25.9766 56.7266 25.9089 56.9766 25.7734C57.2266 25.638 57.4193 25.4714 57.5547 25.2734C57.6953 25.0755 57.7682 24.888 57.7734 24.7109L58.3672 25.6641C58.2839 25.8776 58.1693 26.099 58.0234 26.3281C57.8828 26.5573 57.7031 26.7734 57.4844 26.9766C57.2656 27.1745 57.0026 27.3385 56.6953 27.4688C56.388 27.5938 56.0234 27.6562 55.6016 27.6562C55.0651 27.6562 54.5781 27.5495 54.1406 27.3359C53.7083 27.1172 53.3646 26.8177 53.1094 26.4375C52.8594 26.0521 52.7344 25.6146 52.7344 25.125C52.7344 24.6823 52.8177 24.2891 52.9844 23.9453C53.151 23.6016 53.3958 23.3125 53.7188 23.0781C54.0469 22.8385 54.4557 22.6589 54.9453 22.5391C55.4349 22.4141 56.0026 22.3516 56.6484 22.3516H57.9531ZM63.9062 20.8906V27.5H61.6562V19.0469H63.7734L63.9062 20.8906ZM66.4531 18.9922L66.4141 21.0781C66.3047 21.0625 66.1719 21.0495 66.0156 21.0391C65.8646 21.0234 65.7266 21.0156 65.6016 21.0156C65.2839 21.0156 65.0078 21.0573 64.7734 21.1406C64.5443 21.2188 64.3516 21.3359 64.1953 21.4922C64.0443 21.6484 63.9297 21.8385 63.8516 22.0625C63.7786 22.2865 63.737 22.5417 63.7266 22.8281L63.2734 22.6875C63.2734 22.1406 63.3281 21.638 63.4375 21.1797C63.5469 20.7161 63.7057 20.3125 63.9141 19.9688C64.1276 19.625 64.388 19.3594 64.6953 19.1719C65.0026 18.9844 65.3542 18.8906 65.75 18.8906C65.875 18.8906 66.0026 18.901 66.1328 18.9219C66.263 18.9375 66.3698 18.9609 66.4531 18.9922ZM69.7656 15.4922V27.5H67.5156V15.4922H69.7656ZM75.0938 19.0469L71.4219 23.2344L69.4531 25.2266L68.6328 23.6016L70.1953 21.6172L72.3906 19.0469H75.0938ZM72.7578 27.5L70.2578 23.5938L71.8125 22.2344L75.3516 27.5H72.7578ZM80.6328 25.1641C80.6328 25.0026 80.5859 24.8568 80.4922 24.7266C80.3984 24.5964 80.224 24.4766 79.9688 24.3672C79.7188 24.2526 79.3568 24.1484 78.8828 24.0547C78.4557 23.9609 78.0573 23.8438 77.6875 23.7031C77.3229 23.5573 77.0052 23.3828 76.7344 23.1797C76.4688 22.9766 76.2604 22.737 76.1094 22.4609C75.9583 22.1797 75.8828 21.8594 75.8828 21.5C75.8828 21.1458 75.9583 20.8125 76.1094 20.5C76.2656 20.1875 76.487 19.9115 76.7734 19.6719C77.0651 19.4271 77.4193 19.237 77.8359 19.1016C78.2578 18.9609 78.7318 18.8906 79.2578 18.8906C79.9922 18.8906 80.6224 19.0078 81.1484 19.2422C81.6797 19.4766 82.0859 19.7995 82.3672 20.2109C82.6536 20.6172 82.7969 21.0807 82.7969 21.6016H80.5469C80.5469 21.3828 80.5 21.1875 80.4062 21.0156C80.3177 20.8385 80.1771 20.7005 79.9844 20.6016C79.7969 20.4974 79.5521 20.4453 79.25 20.4453C79 20.4453 78.7839 20.4896 78.6016 20.5781C78.4193 20.6615 78.2786 20.776 78.1797 20.9219C78.0859 21.0625 78.0391 21.2188 78.0391 21.3906C78.0391 21.5208 78.0651 21.638 78.1172 21.7422C78.1745 21.8411 78.2656 21.9323 78.3906 22.0156C78.5156 22.099 78.6771 22.1771 78.875 22.25C79.0781 22.3177 79.3281 22.3802 79.625 22.4375C80.2344 22.5625 80.7786 22.7266 81.2578 22.9297C81.737 23.1276 82.1172 23.3984 82.3984 23.7422C82.6797 24.0807 82.8203 24.526 82.8203 25.0781C82.8203 25.4531 82.737 25.7969 82.5703 26.1094C82.4036 26.4219 82.1641 26.6953 81.8516 26.9297C81.5391 27.1589 81.1641 27.3385 80.7266 27.4688C80.2943 27.5938 79.8073 27.6562 79.2656 27.6562C78.4792 27.6562 77.8125 27.5156 77.2656 27.2344C76.724 26.9531 76.3125 26.5964 76.0312 26.1641C75.7552 25.7266 75.6172 25.2786 75.6172 24.8203H77.75C77.7604 25.1276 77.8385 25.375 77.9844 25.5625C78.1354 25.75 78.3255 25.8854 78.5547 25.9688C78.7891 26.0521 79.0417 26.0938 79.3125 26.0938C79.6042 26.0938 79.8464 26.0547 80.0391 25.9766C80.2318 25.8932 80.3776 25.7839 80.4766 25.6484C80.5807 25.5078 80.6328 25.3464 80.6328 25.1641Z" fill="#8C8888"/>
</svg>
