<svg width="44" height="44" viewBox="0 0 44 44" fill="none" xmlns="http://www.w3.org/2000/svg">
<path d="M7.33333 38.5C7.47947 38.5177 7.6272 38.5177 7.77333 38.5L15.1067 36.6667C15.432 36.5893 15.73 36.4245 15.9683 36.19L38.5 13.585C39.1829 12.898 39.5662 11.9687 39.5662 11C39.5662 10.0313 39.1829 9.102 38.5 8.41501L35.6033 5.50001C35.2628 5.15909 34.8584 4.88864 34.4133 4.70412C33.9682 4.5196 33.491 4.42462 33.0092 4.42462C32.5273 4.42462 32.0502 4.5196 31.6051 4.70412C31.1599 4.88864 30.7555 5.15909 30.415 5.50001L7.88333 28.0317C7.64644 28.2711 7.47587 28.5681 7.38833 28.8933L5.555 36.2267C5.48911 36.4639 5.47166 36.7119 5.50372 36.956C5.53577 37.2001 5.61666 37.4353 5.74156 37.6474C5.86646 37.8596 6.03282 38.0444 6.2307 38.1909C6.42858 38.3374 6.65394 38.4425 6.89333 38.5C7.03947 38.5177 7.1872 38.5177 7.33333 38.5ZM33 8.08501L35.915 11L33 13.915L30.1033 11L33 8.08501ZM10.835 30.2683L27.5 13.585L30.415 16.5L13.7317 33.1833L9.86333 34.1367L10.835 30.2683Z" fill="#8C8888"/>
</svg>
