<svg width="139" height="44" viewBox="0 0 139 44" fill="none" xmlns="http://www.w3.org/2000/svg">
<rect width="139" height="44" rx="22" fill="#F6EEEE"/>
<path d="M15 30V20.85C14.15 20.6167 13.4377 20.15 12.863 19.45C12.2883 18.75 12.0007 17.9333 12 17V10H14V17H15V10H17V17H18V10H20V17C20 17.9333 19.7127 18.75 19.138 19.45C18.5633 20.15 17.8507 20.6167 17 20.85V30H15ZM25 30V22H22V15C22 13.6167 22.4877 12.4377 23.463 11.463C24.4383 10.4883 25.6173 10.0007 27 10V30H25Z" fill="#8C8888"/>
<path d="M38.0156 14.625H42.2578C43.1276 14.625 43.875 14.7552 44.5 15.0156C45.1302 15.276 45.6146 15.6615 45.9531 16.1719C46.2917 16.6823 46.4609 17.3099 46.4609 18.0547C46.4609 18.6641 46.3568 19.1875 46.1484 19.625C45.9453 20.0573 45.6562 20.4193 45.2812 20.7109C44.9115 20.9974 44.4766 21.2266 43.9766 21.3984L43.2344 21.7891H39.5469L39.5312 19.9609H42.2734C42.6849 19.9609 43.026 19.888 43.2969 19.7422C43.5677 19.5964 43.7708 19.3932 43.9062 19.1328C44.0469 18.8724 44.1172 18.5703 44.1172 18.2266C44.1172 17.862 44.0495 17.5469 43.9141 17.2812C43.7786 17.0156 43.5729 16.8125 43.2969 16.6719C43.0208 16.5312 42.6745 16.4609 42.2578 16.4609H40.3594V26H38.0156V14.625ZM44.375 26L41.7812 20.9297L44.2578 20.9141L46.8828 25.8906V26H44.375ZM52.0156 26.1562C51.3594 26.1562 50.7708 26.0521 50.25 25.8438C49.7292 25.6302 49.2865 25.3359 48.9219 24.9609C48.5625 24.5859 48.2865 24.151 48.0938 23.6562C47.901 23.1562 47.8047 22.625 47.8047 22.0625V21.75C47.8047 21.1094 47.8958 20.5234 48.0781 19.9922C48.2604 19.4609 48.5208 19 48.8594 18.6094C49.2031 18.2188 49.6198 17.9193 50.1094 17.7109C50.599 17.4974 51.151 17.3906 51.7656 17.3906C52.3646 17.3906 52.8958 17.4896 53.3594 17.6875C53.8229 17.8854 54.2109 18.1667 54.5234 18.5312C54.8411 18.8958 55.0807 19.3333 55.2422 19.8438C55.4036 20.349 55.4844 20.9115 55.4844 21.5312V22.4688H48.7656V20.9688H53.2734V20.7969C53.2734 20.4844 53.2161 20.2057 53.1016 19.9609C52.9922 19.7109 52.8255 19.513 52.6016 19.3672C52.3776 19.2214 52.0911 19.1484 51.7422 19.1484C51.4453 19.1484 51.1901 19.2135 50.9766 19.3438C50.763 19.474 50.5885 19.6562 50.4531 19.8906C50.3229 20.125 50.224 20.401 50.1562 20.7188C50.0938 21.0312 50.0625 21.375 50.0625 21.75V22.0625C50.0625 22.401 50.1094 22.7135 50.2031 23C50.3021 23.2865 50.4401 23.5339 50.6172 23.7422C50.7995 23.9505 51.0182 24.112 51.2734 24.2266C51.5339 24.3411 51.8281 24.3984 52.1562 24.3984C52.5625 24.3984 52.9401 24.3203 53.2891 24.1641C53.6432 24.0026 53.9479 23.7604 54.2031 23.4375L55.2969 24.625C55.1198 24.8802 54.8776 25.125 54.5703 25.3594C54.2682 25.5938 53.9036 25.7865 53.4766 25.9375C53.0495 26.0833 52.5625 26.1562 52.0156 26.1562ZM61.3359 23.6641C61.3359 23.5026 61.2891 23.3568 61.1953 23.2266C61.1016 23.0964 60.9271 22.9766 60.6719 22.8672C60.4219 22.7526 60.0599 22.6484 59.5859 22.5547C59.1589 22.4609 58.7604 22.3438 58.3906 22.2031C58.026 22.0573 57.7083 21.8828 57.4375 21.6797C57.1719 21.4766 56.9635 21.237 56.8125 20.9609C56.6615 20.6797 56.5859 20.3594 56.5859 20C56.5859 19.6458 56.6615 19.3125 56.8125 19C56.9688 18.6875 57.1901 18.4115 57.4766 18.1719C57.7682 17.9271 58.1224 17.737 58.5391 17.6016C58.9609 17.4609 59.4349 17.3906 59.9609 17.3906C60.6953 17.3906 61.3255 17.5078 61.8516 17.7422C62.3828 17.9766 62.7891 18.2995 63.0703 18.7109C63.3568 19.1172 63.5 19.5807 63.5 20.1016H61.25C61.25 19.8828 61.2031 19.6875 61.1094 19.5156C61.0208 19.3385 60.8802 19.2005 60.6875 19.1016C60.5 18.9974 60.2552 18.9453 59.9531 18.9453C59.7031 18.9453 59.487 18.9896 59.3047 19.0781C59.1224 19.1615 58.9818 19.276 58.8828 19.4219C58.7891 19.5625 58.7422 19.7188 58.7422 19.8906C58.7422 20.0208 58.7682 20.138 58.8203 20.2422C58.8776 20.3411 58.9688 20.4323 59.0938 20.5156C59.2188 20.599 59.3802 20.6771 59.5781 20.75C59.7812 20.8177 60.0312 20.8802 60.3281 20.9375C60.9375 21.0625 61.4818 21.2266 61.9609 21.4297C62.4401 21.6276 62.8203 21.8984 63.1016 22.2422C63.3828 22.5807 63.5234 23.026 63.5234 23.5781C63.5234 23.9531 63.4401 24.2969 63.2734 24.6094C63.1068 24.9219 62.8672 25.1953 62.5547 25.4297C62.2422 25.6589 61.8672 25.8385 61.4297 25.9688C60.9974 26.0938 60.5104 26.1562 59.9688 26.1562C59.1823 26.1562 58.5156 26.0156 57.9688 25.7344C57.4271 25.4531 57.0156 25.0964 56.7344 24.6641C56.4583 24.2266 56.3203 23.7786 56.3203 23.3203H58.4531C58.4635 23.6276 58.5417 23.875 58.6875 24.0625C58.8385 24.25 59.0286 24.3854 59.2578 24.4688C59.4922 24.5521 59.7448 24.5938 60.0156 24.5938C60.3073 24.5938 60.5495 24.5547 60.7422 24.4766C60.9349 24.3932 61.0807 24.2839 61.1797 24.1484C61.2839 24.0078 61.3359 23.8464 61.3359 23.6641ZM69.125 17.5469V19.1406H64.2031V17.5469H69.125ZM65.4219 15.4609H67.6719V23.4531C67.6719 23.6979 67.7031 23.8854 67.7656 24.0156C67.8333 24.1458 67.9323 24.237 68.0625 24.2891C68.1927 24.3359 68.3568 24.3594 68.5547 24.3594C68.6953 24.3594 68.8203 24.3542 68.9297 24.3438C69.0443 24.3281 69.1406 24.3125 69.2188 24.2969L69.2266 25.9531C69.0339 26.0156 68.8255 26.0651 68.6016 26.1016C68.3776 26.138 68.1302 26.1562 67.8594 26.1562C67.3646 26.1562 66.9323 26.0755 66.5625 25.9141C66.1979 25.7474 65.9167 25.4818 65.7188 25.1172C65.5208 24.7526 65.4219 24.2734 65.4219 23.6797V15.4609ZM74.9688 24.0938V20.3281C74.9688 20.0573 74.9245 19.8255 74.8359 19.6328C74.7474 19.4349 74.6094 19.2812 74.4219 19.1719C74.2396 19.0625 74.0026 19.0078 73.7109 19.0078C73.4609 19.0078 73.2448 19.0521 73.0625 19.1406C72.8802 19.224 72.7396 19.3464 72.6406 19.5078C72.5417 19.6641 72.4922 19.849 72.4922 20.0625H70.2422C70.2422 19.7031 70.3255 19.362 70.4922 19.0391C70.6589 18.7161 70.901 18.4323 71.2188 18.1875C71.5365 17.9375 71.9141 17.7422 72.3516 17.6016C72.7943 17.4609 73.2891 17.3906 73.8359 17.3906C74.4922 17.3906 75.0755 17.5 75.5859 17.7188C76.0964 17.9375 76.4974 18.2656 76.7891 18.7031C77.0859 19.1406 77.2344 19.6875 77.2344 20.3438V23.9609C77.2344 24.4245 77.263 24.8047 77.3203 25.1016C77.3776 25.3932 77.4609 25.6484 77.5703 25.8672V26H75.2969C75.1875 25.7708 75.1042 25.4844 75.0469 25.1406C74.9948 24.7917 74.9688 24.4427 74.9688 24.0938ZM75.2656 20.8516L75.2812 22.125H74.0234C73.7266 22.125 73.4688 22.1589 73.25 22.2266C73.0312 22.2943 72.8516 22.3906 72.7109 22.5156C72.5703 22.6354 72.4661 22.776 72.3984 22.9375C72.3359 23.099 72.3047 23.276 72.3047 23.4688C72.3047 23.6615 72.349 23.8359 72.4375 23.9922C72.526 24.1432 72.6536 24.263 72.8203 24.3516C72.987 24.4349 73.1823 24.4766 73.4062 24.4766C73.7448 24.4766 74.0391 24.4089 74.2891 24.2734C74.5391 24.138 74.7318 23.9714 74.8672 23.7734C75.0078 23.5755 75.0807 23.388 75.0859 23.2109L75.6797 24.1641C75.5964 24.3776 75.4818 24.599 75.3359 24.8281C75.1953 25.0573 75.0156 25.2734 74.7969 25.4766C74.5781 25.6745 74.3151 25.8385 74.0078 25.9688C73.7005 26.0938 73.3359 26.1562 72.9141 26.1562C72.3776 26.1562 71.8906 26.0495 71.4531 25.8359C71.0208 25.6172 70.6771 25.3177 70.4219 24.9375C70.1719 24.5521 70.0469 24.1146 70.0469 23.625C70.0469 23.1823 70.1302 22.7891 70.2969 22.4453C70.4635 22.1016 70.7083 21.8125 71.0312 21.5781C71.3594 21.3385 71.7682 21.1589 72.2578 21.0391C72.7474 20.9141 73.3151 20.8516 73.9609 20.8516H75.2656ZM83.9688 23.9766V17.5469H86.2188V26H84.1016L83.9688 23.9766ZM84.2188 22.2422L84.8828 22.2266C84.8828 22.7891 84.8177 23.3125 84.6875 23.7969C84.5573 24.276 84.362 24.6927 84.1016 25.0469C83.8411 25.3958 83.513 25.6693 83.1172 25.8672C82.7214 26.0599 82.2552 26.1562 81.7188 26.1562C81.3073 26.1562 80.9271 26.099 80.5781 25.9844C80.2344 25.8646 79.9375 25.6797 79.6875 25.4297C79.4427 25.1745 79.25 24.849 79.1094 24.4531C78.974 24.0521 78.9062 23.5703 78.9062 23.0078V17.5469H81.1562V23.0234C81.1562 23.2734 81.1849 23.4844 81.2422 23.6562C81.3047 23.8281 81.3906 23.9688 81.5 24.0781C81.6094 24.1875 81.737 24.2656 81.8828 24.3125C82.0339 24.3594 82.2005 24.3828 82.3828 24.3828C82.8464 24.3828 83.2109 24.2891 83.4766 24.1016C83.7474 23.9141 83.9375 23.6589 84.0469 23.3359C84.1615 23.0078 84.2188 22.6432 84.2188 22.2422ZM90.1875 19.3906V26H87.9375V17.5469H90.0547L90.1875 19.3906ZM92.7344 17.4922L92.6953 19.5781C92.5859 19.5625 92.4531 19.5495 92.2969 19.5391C92.1458 19.5234 92.0078 19.5156 91.8828 19.5156C91.5651 19.5156 91.2891 19.5573 91.0547 19.6406C90.8255 19.7188 90.6328 19.8359 90.4766 19.9922C90.3255 20.1484 90.2109 20.3385 90.1328 20.5625C90.0599 20.7865 90.0182 21.0417 90.0078 21.3281L89.5547 21.1875C89.5547 20.6406 89.6094 20.138 89.7188 19.6797C89.8281 19.2161 89.987 18.8125 90.1953 18.4688C90.4089 18.125 90.6693 17.8594 90.9766 17.6719C91.2839 17.4844 91.6354 17.3906 92.0312 17.3906C92.1562 17.3906 92.2839 17.401 92.4141 17.4219C92.5443 17.4375 92.651 17.4609 92.7344 17.4922ZM98.0938 24.0938V20.3281C98.0938 20.0573 98.0495 19.8255 97.9609 19.6328C97.8724 19.4349 97.7344 19.2812 97.5469 19.1719C97.3646 19.0625 97.1276 19.0078 96.8359 19.0078C96.5859 19.0078 96.3698 19.0521 96.1875 19.1406C96.0052 19.224 95.8646 19.3464 95.7656 19.5078C95.6667 19.6641 95.6172 19.849 95.6172 20.0625H93.3672C93.3672 19.7031 93.4505 19.362 93.6172 19.0391C93.7839 18.7161 94.026 18.4323 94.3438 18.1875C94.6615 17.9375 95.0391 17.7422 95.4766 17.6016C95.9193 17.4609 96.4141 17.3906 96.9609 17.3906C97.6172 17.3906 98.2005 17.5 98.7109 17.7188C99.2214 17.9375 99.6224 18.2656 99.9141 18.7031C100.211 19.1406 100.359 19.6875 100.359 20.3438V23.9609C100.359 24.4245 100.388 24.8047 100.445 25.1016C100.503 25.3932 100.586 25.6484 100.695 25.8672V26H98.4219C98.3125 25.7708 98.2292 25.4844 98.1719 25.1406C98.1198 24.7917 98.0938 24.4427 98.0938 24.0938ZM98.3906 20.8516L98.4062 22.125H97.1484C96.8516 22.125 96.5938 22.1589 96.375 22.2266C96.1562 22.2943 95.9766 22.3906 95.8359 22.5156C95.6953 22.6354 95.5911 22.776 95.5234 22.9375C95.4609 23.099 95.4297 23.276 95.4297 23.4688C95.4297 23.6615 95.474 23.8359 95.5625 23.9922C95.651 24.1432 95.7786 24.263 95.9453 24.3516C96.112 24.4349 96.3073 24.4766 96.5312 24.4766C96.8698 24.4766 97.1641 24.4089 97.4141 24.2734C97.6641 24.138 97.8568 23.9714 97.9922 23.7734C98.1328 23.5755 98.2057 23.388 98.2109 23.2109L98.8047 24.1641C98.7214 24.3776 98.6068 24.599 98.4609 24.8281C98.3203 25.0573 98.1406 25.2734 97.9219 25.4766C97.7031 25.6745 97.4401 25.8385 97.1328 25.9688C96.8255 26.0938 96.4609 26.1562 96.0391 26.1562C95.5026 26.1562 95.0156 26.0495 94.5781 25.8359C94.1458 25.6172 93.8021 25.3177 93.5469 24.9375C93.2969 24.5521 93.1719 24.1146 93.1719 23.625C93.1719 23.1823 93.2552 22.7891 93.4219 22.4453C93.5885 22.1016 93.8333 21.8125 94.1562 21.5781C94.4844 21.3385 94.8932 21.1589 95.3828 21.0391C95.8724 20.9141 96.4401 20.8516 97.0859 20.8516H98.3906ZM104.297 19.3516V26H102.047V17.5469H104.156L104.297 19.3516ZM103.969 21.4766H103.359C103.359 20.8516 103.44 20.2891 103.602 19.7891C103.763 19.2839 103.99 18.8542 104.281 18.5C104.573 18.1406 104.919 17.8672 105.32 17.6797C105.727 17.487 106.18 17.3906 106.68 17.3906C107.076 17.3906 107.438 17.4479 107.766 17.5625C108.094 17.6771 108.375 17.8594 108.609 18.1094C108.849 18.3594 109.031 18.6901 109.156 19.1016C109.286 19.513 109.352 20.0156 109.352 20.6094V26H107.086V20.6016C107.086 20.2266 107.034 19.9349 106.93 19.7266C106.826 19.5182 106.672 19.3724 106.469 19.2891C106.271 19.2005 106.026 19.1562 105.734 19.1562C105.432 19.1562 105.169 19.2161 104.945 19.3359C104.727 19.4557 104.544 19.6224 104.398 19.8359C104.258 20.0443 104.151 20.2891 104.078 20.5703C104.005 20.8516 103.969 21.1536 103.969 21.4766ZM115.203 17.5469V19.1406H110.281V17.5469H115.203ZM111.5 15.4609H113.75V23.4531C113.75 23.6979 113.781 23.8854 113.844 24.0156C113.911 24.1458 114.01 24.237 114.141 24.2891C114.271 24.3359 114.435 24.3594 114.633 24.3594C114.773 24.3594 114.898 24.3542 115.008 24.3438C115.122 24.3281 115.219 24.3125 115.297 24.2969L115.305 25.9531C115.112 26.0156 114.904 26.0651 114.68 26.1016C114.456 26.138 114.208 26.1562 113.938 26.1562C113.443 26.1562 113.01 26.0755 112.641 25.9141C112.276 25.7474 111.995 25.4818 111.797 25.1172C111.599 24.7526 111.5 24.2734 111.5 23.6797V15.4609ZM121.055 23.6641C121.055 23.5026 121.008 23.3568 120.914 23.2266C120.82 23.0964 120.646 22.9766 120.391 22.8672C120.141 22.7526 119.779 22.6484 119.305 22.5547C118.878 22.4609 118.479 22.3438 118.109 22.2031C117.745 22.0573 117.427 21.8828 117.156 21.6797C116.891 21.4766 116.682 21.237 116.531 20.9609C116.38 20.6797 116.305 20.3594 116.305 20C116.305 19.6458 116.38 19.3125 116.531 19C116.688 18.6875 116.909 18.4115 117.195 18.1719C117.487 17.9271 117.841 17.737 118.258 17.6016C118.68 17.4609 119.154 17.3906 119.68 17.3906C120.414 17.3906 121.044 17.5078 121.57 17.7422C122.102 17.9766 122.508 18.2995 122.789 18.7109C123.076 19.1172 123.219 19.5807 123.219 20.1016H120.969C120.969 19.8828 120.922 19.6875 120.828 19.5156C120.74 19.3385 120.599 19.2005 120.406 19.1016C120.219 18.9974 119.974 18.9453 119.672 18.9453C119.422 18.9453 119.206 18.9896 119.023 19.0781C118.841 19.1615 118.701 19.276 118.602 19.4219C118.508 19.5625 118.461 19.7188 118.461 19.8906C118.461 20.0208 118.487 20.138 118.539 20.2422C118.596 20.3411 118.688 20.4323 118.812 20.5156C118.938 20.599 119.099 20.6771 119.297 20.75C119.5 20.8177 119.75 20.8802 120.047 20.9375C120.656 21.0625 121.201 21.2266 121.68 21.4297C122.159 21.6276 122.539 21.8984 122.82 22.2422C123.102 22.5807 123.242 23.026 123.242 23.5781C123.242 23.9531 123.159 24.2969 122.992 24.6094C122.826 24.9219 122.586 25.1953 122.273 25.4297C121.961 25.6589 121.586 25.8385 121.148 25.9688C120.716 26.0938 120.229 26.1562 119.688 26.1562C118.901 26.1562 118.234 26.0156 117.688 25.7344C117.146 25.4531 116.734 25.0964 116.453 24.6641C116.177 24.2266 116.039 23.7786 116.039 23.3203H118.172C118.182 23.6276 118.26 23.875 118.406 24.0625C118.557 24.25 118.747 24.3854 118.977 24.4688C119.211 24.5521 119.464 24.5938 119.734 24.5938C120.026 24.5938 120.268 24.5547 120.461 24.4766C120.654 24.3932 120.799 24.2839 120.898 24.1484C121.003 24.0078 121.055 23.8464 121.055 23.6641Z" fill="#8C8888"/>
</svg>
