<svg width="130" height="44" viewBox="0 0 130 44" fill="none" xmlns="http://www.w3.org/2000/svg">
<rect width="130" height="44" rx="22" fill="#F6EEEE"/>
<path d="M19 16H30M19 22H30M19 28H30M15 16V16.01M15 22V22.01M15 28V28.01" stroke="#8C8888" stroke-width="2" stroke-linecap="round" stroke-linejoin="round"/>
<path d="M44.1172 24.625L46.7969 15.625H49.4062L45.4453 27H43.7266L44.1172 24.625ZM41.6484 15.625L44.3203 24.625L44.7266 27H42.9922L39.0547 15.625H41.6484ZM52.7031 18.5469V27H50.4453V18.5469H52.7031ZM50.3047 16.3438C50.3047 16.0156 50.4193 15.7448 50.6484 15.5312C50.8776 15.3177 51.1849 15.2109 51.5703 15.2109C51.9505 15.2109 52.2552 15.3177 52.4844 15.5312C52.7188 15.7448 52.8359 16.0156 52.8359 16.3438C52.8359 16.6719 52.7188 16.9427 52.4844 17.1562C52.2552 17.3698 51.9505 17.4766 51.5703 17.4766C51.1849 17.4766 50.8776 17.3698 50.6484 17.1562C50.4193 16.9427 50.3047 16.6719 50.3047 16.3438ZM58.4531 27.1562C57.7969 27.1562 57.2083 27.0521 56.6875 26.8438C56.1667 26.6302 55.724 26.3359 55.3594 25.9609C55 25.5859 54.724 25.151 54.5312 24.6562C54.3385 24.1562 54.2422 23.625 54.2422 23.0625V22.75C54.2422 22.1094 54.3333 21.5234 54.5156 20.9922C54.6979 20.4609 54.9583 20 55.2969 19.6094C55.6406 19.2188 56.0573 18.9193 56.5469 18.7109C57.0365 18.4974 57.5885 18.3906 58.2031 18.3906C58.8021 18.3906 59.3333 18.4896 59.7969 18.6875C60.2604 18.8854 60.6484 19.1667 60.9609 19.5312C61.2786 19.8958 61.5182 20.3333 61.6797 20.8438C61.8411 21.349 61.9219 21.9115 61.9219 22.5312V23.4688H55.2031V21.9688H59.7109V21.7969C59.7109 21.4844 59.6536 21.2057 59.5391 20.9609C59.4297 20.7109 59.263 20.513 59.0391 20.3672C58.8151 20.2214 58.5286 20.1484 58.1797 20.1484C57.8828 20.1484 57.6276 20.2135 57.4141 20.3438C57.2005 20.474 57.026 20.6562 56.8906 20.8906C56.7604 21.125 56.6615 21.401 56.5938 21.7188C56.5312 22.0312 56.5 22.375 56.5 22.75V23.0625C56.5 23.401 56.5469 23.7135 56.6406 24C56.7396 24.2865 56.8776 24.5339 57.0547 24.7422C57.237 24.9505 57.4557 25.112 57.7109 25.2266C57.9714 25.3411 58.2656 25.3984 58.5938 25.3984C59 25.3984 59.3776 25.3203 59.7266 25.1641C60.0807 25.0026 60.3854 24.7604 60.6406 24.4375L61.7344 25.625C61.5573 25.8802 61.3151 26.125 61.0078 26.3594C60.7057 26.5938 60.3411 26.7865 59.9141 26.9375C59.487 27.0833 59 27.1562 58.4531 27.1562ZM65.6172 24.8125L67.375 18.5469H68.8047L68.3438 21.0078L66.5859 27H65.3906L65.6172 24.8125ZM64.7266 18.5469L65.9844 24.8047L66.1016 27H64.6953L62.5547 18.5469H64.7266ZM70.4141 24.7031L71.6406 18.5469H73.8203L71.6797 27H70.2812L70.4141 24.7031ZM69 18.5469L70.75 24.7656L70.9922 27H69.7891L68.0312 21.0156L67.5859 18.5469H69ZM86.3906 25.1719V27H80.6641V25.1719H86.3906ZM81.4219 15.625V27H79.0781V15.625H81.4219ZM89.9688 18.5469V27H87.7109V18.5469H89.9688ZM87.5703 16.3438C87.5703 16.0156 87.6849 15.7448 87.9141 15.5312C88.1432 15.3177 88.4505 15.2109 88.8359 15.2109C89.2161 15.2109 89.5208 15.3177 89.75 15.5312C89.9844 15.7448 90.1016 16.0156 90.1016 16.3438C90.1016 16.6719 89.9844 16.9427 89.75 17.1562C89.5208 17.3698 89.2161 17.4766 88.8359 17.4766C88.4505 17.4766 88.1432 17.3698 87.9141 17.1562C87.6849 16.9427 87.5703 16.6719 87.5703 16.3438ZM96.3984 24.6641C96.3984 24.5026 96.3516 24.3568 96.2578 24.2266C96.1641 24.0964 95.9896 23.9766 95.7344 23.8672C95.4844 23.7526 95.1224 23.6484 94.6484 23.5547C94.2214 23.4609 93.8229 23.3438 93.4531 23.2031C93.0885 23.0573 92.7708 22.8828 92.5 22.6797C92.2344 22.4766 92.026 22.237 91.875 21.9609C91.724 21.6797 91.6484 21.3594 91.6484 21C91.6484 20.6458 91.724 20.3125 91.875 20C92.0312 19.6875 92.2526 19.4115 92.5391 19.1719C92.8307 18.9271 93.1849 18.737 93.6016 18.6016C94.0234 18.4609 94.4974 18.3906 95.0234 18.3906C95.7578 18.3906 96.388 18.5078 96.9141 18.7422C97.4453 18.9766 97.8516 19.2995 98.1328 19.7109C98.4193 20.1172 98.5625 20.5807 98.5625 21.1016H96.3125C96.3125 20.8828 96.2656 20.6875 96.1719 20.5156C96.0833 20.3385 95.9427 20.2005 95.75 20.1016C95.5625 19.9974 95.3177 19.9453 95.0156 19.9453C94.7656 19.9453 94.5495 19.9896 94.3672 20.0781C94.1849 20.1615 94.0443 20.276 93.9453 20.4219C93.8516 20.5625 93.8047 20.7188 93.8047 20.8906C93.8047 21.0208 93.8307 21.138 93.8828 21.2422C93.9401 21.3411 94.0312 21.4323 94.1562 21.5156C94.2812 21.599 94.4427 21.6771 94.6406 21.75C94.8438 21.8177 95.0938 21.8802 95.3906 21.9375C96 22.0625 96.5443 22.2266 97.0234 22.4297C97.5026 22.6276 97.8828 22.8984 98.1641 23.2422C98.4453 23.5807 98.5859 24.026 98.5859 24.5781C98.5859 24.9531 98.5026 25.2969 98.3359 25.6094C98.1693 25.9219 97.9297 26.1953 97.6172 26.4297C97.3047 26.6589 96.9297 26.8385 96.4922 26.9688C96.0599 27.0938 95.5729 27.1562 95.0312 27.1562C94.2448 27.1562 93.5781 27.0156 93.0312 26.7344C92.4896 26.4531 92.0781 26.0964 91.7969 25.6641C91.5208 25.2266 91.3828 24.7786 91.3828 24.3203H93.5156C93.526 24.6276 93.6042 24.875 93.75 25.0625C93.901 25.25 94.0911 25.3854 94.3203 25.4688C94.5547 25.5521 94.8073 25.5938 95.0781 25.5938C95.3698 25.5938 95.612 25.5547 95.8047 25.4766C95.9974 25.3932 96.1432 25.2839 96.2422 25.1484C96.3464 25.0078 96.3984 24.8464 96.3984 24.6641ZM104.188 18.5469V20.1406H99.2656V18.5469H104.188ZM100.484 16.4609H102.734V24.4531C102.734 24.6979 102.766 24.8854 102.828 25.0156C102.896 25.1458 102.995 25.237 103.125 25.2891C103.255 25.3359 103.419 25.3594 103.617 25.3594C103.758 25.3594 103.883 25.3542 103.992 25.3438C104.107 25.3281 104.203 25.3125 104.281 25.2969L104.289 26.9531C104.096 27.0156 103.888 27.0651 103.664 27.1016C103.44 27.138 103.193 27.1562 102.922 27.1562C102.427 27.1562 101.995 27.0755 101.625 26.9141C101.26 26.7474 100.979 26.4818 100.781 26.1172C100.583 25.7526 100.484 25.2734 100.484 24.6797V16.4609Z" fill="#8C8888"/>
</svg>
